<mxfile host="65bd71144e">
    <diagram id="0EwH_L1ghZYcp6y9B2za" name="ページ1">
        <mxGraphModel dx="1765" dy="1848" grid="1" gridSize="10" guides="1" tooltips="1" connect="1" arrows="1" fold="1" page="1" pageScale="1" pageWidth="827" pageHeight="1169" math="0" shadow="0">
            <root>
                <mxCell id="0"/>
                <mxCell id="1" parent="0"/>
                <UserObject label="" mermaidData="{&#10;  &quot;data&quot;: &quot;flowchart TD\n    A(開始) --&gt; B[実行時の日付を取得]\n    B --&gt; C[前月末の日付を算出]\n    C --&gt; D[前月の計測結果を取得するクエリを作成]\n    D --&gt; E[iNoniusスピードテストのDBへの接続情報を取得]\n    E --&gt; F{BDへ接続}\n    F -- Yes --&gt; G[クエリを実行]\n    F -- No --&gt; H[異常の通知]\n    H --&gt; I([終了])\n    G --&gt; J[DBから1ヶ月間の計測ログを取得]\n    J --&gt; K{計測ログの件数}\n    K -- 0件 --&gt; L[異常の通知]\n    L --&gt; I\n    K -- 1件以上 --&gt; M[外れ値の除去]\n    M --&gt; X{可視化システムDBに接続}\n    X -- Yes --&gt; N[/アクセス環境の数ループ\\]\n    X -- No --&gt; Y[異常の通知]\n    Y --&gt; I\n    N --&gt; O[アクセス環境の条件に合致するデータを抽出]\n    O --&gt; P[基本統計量を算出]\n    P --&gt; Q[統計量記録用テーブルの更新]\n    Q --&gt; R[統計量記録用テーブルから1年分のデータを取得]\n    R --&gt; S[グラフを作成]\n    S --&gt; T[グラフ画像記録用テーブルに保存]\n    T --&gt; U[\\ /]\n    U --&gt; N\n    U --&gt; V(終了)\n&quot;,&#10;  &quot;config&quot;: {&#10;    &quot;theme&quot;: &quot;neutral&quot;,&#10;    &quot;arrowMarkerAbsolute&quot;: false,&#10;    &quot;flowchart&quot;: {&#10;      &quot;htmlLabels&quot;: false&#10;    },&#10;    &quot;sequence&quot;: {&#10;      &quot;diagramMarginX&quot;: 50,&#10;      &quot;diagramMarginY&quot;: 10,&#10;      &quot;actorMargin&quot;: 50,&#10;      &quot;width&quot;: 150,&#10;      &quot;height&quot;: 65,&#10;      &quot;boxMargin&quot;: 10,&#10;      &quot;boxTextMargin&quot;: 5,&#10;      &quot;noteMargin&quot;: 10,&#10;      &quot;messageMargin&quot;: 35,&#10;      &quot;mirrorActors&quot;: true,&#10;      &quot;bottomMarginAdj&quot;: 1,&#10;      &quot;useMaxWidth&quot;: true,&#10;      &quot;rightAngles&quot;: false,&#10;      &quot;showSequenceNumbers&quot;: false&#10;    },&#10;    &quot;gantt&quot;: {&#10;      &quot;titleTopMargin&quot;: 25,&#10;      &quot;barHeight&quot;: 20,&#10;      &quot;barGap&quot;: 4,&#10;      &quot;topPadding&quot;: 50,&#10;      &quot;leftPadding&quot;: 75,&#10;      &quot;gridLineStartPadding&quot;: 35,&#10;      &quot;fontSize&quot;: 11,&#10;      &quot;fontFamily&quot;: &quot;\&quot;Open-Sans\&quot;, \&quot;sans-serif\&quot;&quot;,&#10;      &quot;numberSectionStyles&quot;: 4,&#10;      &quot;axisFormat&quot;: &quot;%Y-%m-%d&quot;&#10;    }&#10;  }&#10;}" id="2">
                    <mxCell style="shape=image;noLabel=1;verticalAlign=top;imageAspect=1;image=data:image/svg+xml,PHN2ZyB2aWV3Qm94PSIwIDAgNzMwLjI1NzgwNDg3MDYwNTUgMjEwNS43NSIgc3R5bGU9Im1heC13aWR0aDogNzMwLjI1NzgwNDg3MDYwNTVweDsiIGhlaWdodD0iMjEwNS43NSIgYXJpYS1sYWJlbGxlZGJ5PSJjaGFydC10aXRsZS1nZU1lcm1haWRPdXRwdXQtMTczNzAyNDU1Mjg5MCBjaGFydC1kZXNjLWdlTWVybWFpZE91dHB1dC0xNzM3MDI0NTUyODkwIiByb2xlPSJpbWciIHhtbG5zOnhsaW5rPSJodHRwOi8vd3d3LnczLm9yZy8xOTk5L3hsaW5rIiB4bWxucz0iaHR0cDovL3d3dy53My5vcmcvMjAwMC9zdmciIHdpZHRoPSIxMDAlIiBpZD0iZ2VNZXJtYWlkT3V0cHV0LTE3MzcwMjQ1NTI4OTAiPjx0aXRsZSBpZD0iY2hhcnQtdGl0bGUtZ2VNZXJtYWlkT3V0cHV0LTE3MzcwMjQ1NTI4OTAiPjwvdGl0bGU+PGRlc2MgaWQ9ImNoYXJ0LWRlc2MtZ2VNZXJtYWlkT3V0cHV0LTE3MzcwMjQ1NTI4OTAiPjwvZGVzYz48c3R5bGU+I2dlTWVybWFpZE91dHB1dC0xNzM3MDI0NTUyODkwIHtmb250LWZhbWlseToidHJlYnVjaGV0IG1zIix2ZXJkYW5hLGFyaWFsLHNhbnMtc2VyaWY7Zm9udC1zaXplOjE2cHg7ZmlsbDojMDAwMDAwO30jZ2VNZXJtYWlkT3V0cHV0LTE3MzcwMjQ1NTI4OTAgLmVycm9yLWljb257ZmlsbDojNTUyMjIyO30jZ2VNZXJtYWlkT3V0cHV0LTE3MzcwMjQ1NTI4OTAgLmVycm9yLXRleHR7ZmlsbDojNTUyMjIyO3N0cm9rZTojNTUyMjIyO30jZ2VNZXJtYWlkT3V0cHV0LTE3MzcwMjQ1NTI4OTAgLmVkZ2UtdGhpY2tuZXNzLW5vcm1hbHtzdHJva2Utd2lkdGg6MnB4O30jZ2VNZXJtYWlkT3V0cHV0LTE3MzcwMjQ1NTI4OTAgLmVkZ2UtdGhpY2tuZXNzLXRoaWNre3N0cm9rZS13aWR0aDozLjVweDt9I2dlTWVybWFpZE91dHB1dC0xNzM3MDI0NTUyODkwIC5lZGdlLXBhdHRlcm4tc29saWR7c3Ryb2tlLWRhc2hhcnJheTowO30jZ2VNZXJtYWlkT3V0cHV0LTE3MzcwMjQ1NTI4OTAgLmVkZ2UtcGF0dGVybi1kYXNoZWR7c3Ryb2tlLWRhc2hhcnJheTozO30jZ2VNZXJtYWlkT3V0cHV0LTE3MzcwMjQ1NTI4OTAgLmVkZ2UtcGF0dGVybi1kb3R0ZWR7c3Ryb2tlLWRhc2hhcnJheToyO30jZ2VNZXJtYWlkT3V0cHV0LTE3MzcwMjQ1NTI4OTAgLm1hcmtlcntmaWxsOiM2NjY7c3Ryb2tlOiM2NjY7fSNnZU1lcm1haWRPdXRwdXQtMTczNzAyNDU1Mjg5MCAubWFya2VyLmNyb3Nze3N0cm9rZTojNjY2O30jZ2VNZXJtYWlkT3V0cHV0LTE3MzcwMjQ1NTI4OTAgc3Zne2ZvbnQtZmFtaWx5OiJ0cmVidWNoZXQgbXMiLHZlcmRhbmEsYXJpYWwsc2Fucy1zZXJpZjtmb250LXNpemU6MTZweDt9I2dlTWVybWFpZE91dHB1dC0xNzM3MDI0NTUyODkwIC5sYWJlbHtmb250LWZhbWlseToidHJlYnVjaGV0IG1zIix2ZXJkYW5hLGFyaWFsLHNhbnMtc2VyaWY7Y29sb3I6IzAwMDAwMDt9I2dlTWVybWFpZE91dHB1dC0xNzM3MDI0NTUyODkwIC5jbHVzdGVyLWxhYmVsIHRleHR7ZmlsbDojMzMzO30jZ2VNZXJtYWlkT3V0cHV0LTE3MzcwMjQ1NTI4OTAgLmNsdXN0ZXItbGFiZWwgc3Bhbntjb2xvcjojMzMzO30jZ2VNZXJtYWlkT3V0cHV0LTE3MzcwMjQ1NTI4OTAgLmxhYmVsIHRleHQsI2dlTWVybWFpZE91dHB1dC0xNzM3MDI0NTUyODkwIHNwYW57ZmlsbDojMDAwMDAwO2NvbG9yOiMwMDAwMDA7fSNnZU1lcm1haWRPdXRwdXQtMTczNzAyNDU1Mjg5MCAubm9kZSByZWN0LCNnZU1lcm1haWRPdXRwdXQtMTczNzAyNDU1Mjg5MCAubm9kZSBjaXJjbGUsI2dlTWVybWFpZE91dHB1dC0xNzM3MDI0NTUyODkwIC5ub2RlIGVsbGlwc2UsI2dlTWVybWFpZE91dHB1dC0xNzM3MDI0NTUyODkwIC5ub2RlIHBvbHlnb24sI2dlTWVybWFpZE91dHB1dC0xNzM3MDI0NTUyODkwIC5ub2RlIHBhdGh7ZmlsbDojZWVlO3N0cm9rZTojOTk5O3N0cm9rZS13aWR0aDoxcHg7fSNnZU1lcm1haWRPdXRwdXQtMTczNzAyNDU1Mjg5MCAubm9kZSAubGFiZWx7dGV4dC1hbGlnbjpjZW50ZXI7fSNnZU1lcm1haWRPdXRwdXQtMTczNzAyNDU1Mjg5MCAubm9kZS5jbGlja2FibGV7Y3Vyc29yOnBvaW50ZXI7fSNnZU1lcm1haWRPdXRwdXQtMTczNzAyNDU1Mjg5MCAuYXJyb3doZWFkUGF0aHtmaWxsOiMzMzMzMzM7fSNnZU1lcm1haWRPdXRwdXQtMTczNzAyNDU1Mjg5MCAuZWRnZVBhdGggLnBhdGh7c3Ryb2tlOiM2NjY7c3Ryb2tlLXdpZHRoOjIuMHB4O30jZ2VNZXJtYWlkT3V0cHV0LTE3MzcwMjQ1NTI4OTAgLmZsb3djaGFydC1saW5re3N0cm9rZTojNjY2O2ZpbGw6bm9uZTt9I2dlTWVybWFpZE91dHB1dC0xNzM3MDI0NTUyODkwIC5lZGdlTGFiZWx7YmFja2dyb3VuZC1jb2xvcjp3aGl0ZTt0ZXh0LWFsaWduOmNlbnRlcjt9I2dlTWVybWFpZE91dHB1dC0xNzM3MDI0NTUyODkwIC5lZGdlTGFiZWwgcmVjdHtvcGFjaXR5OjAuNTtiYWNrZ3JvdW5kLWNvbG9yOndoaXRlO2ZpbGw6d2hpdGU7fSNnZU1lcm1haWRPdXRwdXQtMTczNzAyNDU1Mjg5MCAuY2x1c3RlciByZWN0e2ZpbGw6aHNsKDAsIDAlLCA5OC45MjE1Njg2Mjc1JSk7c3Ryb2tlOiM3MDcwNzA7c3Ryb2tlLXdpZHRoOjFweDt9I2dlTWVybWFpZE91dHB1dC0xNzM3MDI0NTUyODkwIC5jbHVzdGVyIHRleHR7ZmlsbDojMzMzO30jZ2VNZXJtYWlkT3V0cHV0LTE3MzcwMjQ1NTI4OTAgLmNsdXN0ZXIgc3Bhbntjb2xvcjojMzMzO30jZ2VNZXJtYWlkT3V0cHV0LTE3MzcwMjQ1NTI4OTAgZGl2Lm1lcm1haWRUb29sdGlwe3Bvc2l0aW9uOmFic29sdXRlO3RleHQtYWxpZ246Y2VudGVyO21heC13aWR0aDoyMDBweDtwYWRkaW5nOjJweDtmb250LWZhbWlseToidHJlYnVjaGV0IG1zIix2ZXJkYW5hLGFyaWFsLHNhbnMtc2VyaWY7Zm9udC1zaXplOjEycHg7YmFja2dyb3VuZDpoc2woLTE2MCwgMCUsIDkzLjMzMzMzMzMzMzMlKTtib3JkZXI6MXB4IHNvbGlkICM3MDcwNzA7Ym9yZGVyLXJhZGl1czoycHg7cG9pbnRlci1ldmVudHM6bm9uZTt6LWluZGV4OjEwMDt9I2dlTWVybWFpZE91dHB1dC0xNzM3MDI0NTUyODkwIDpyb290ey0tbWVybWFpZC1mb250LWZhbWlseToidHJlYnVjaGV0IG1zIix2ZXJkYW5hLGFyaWFsLHNhbnMtc2VyaWY7fTwvc3R5bGU+PGcgdHJhbnNmb3JtPSJ0cmFuc2xhdGUoMCwgMCkiPjxtYXJrZXIgb3JpZW50PSJhdXRvIiBtYXJrZXJIZWlnaHQ9IjEyIiBtYXJrZXJXaWR0aD0iMTIiIG1hcmtlclVuaXRzPSJ1c2VyU3BhY2VPblVzZSIgcmVmWT0iNSIgcmVmWD0iOSIgdmlld0JveD0iMCAwIDEwIDEwIiBjbGFzcz0ibWFya2VyIGZsb3djaGFydCIgaWQ9ImZsb3djaGFydC1wb2ludEVuZCI+PHBhdGggc3R5bGU9InN0cm9rZS13aWR0aDogMTsgc3Ryb2tlLWRhc2hhcnJheTogMSwgMDsiIGNsYXNzPSJhcnJvd01hcmtlclBhdGgiIGQ9Ik0gMCAwIEwgMTAgNSBMIDAgMTAgeiI+PC9wYXRoPjwvbWFya2VyPjxtYXJrZXIgb3JpZW50PSJhdXRvIiBtYXJrZXJIZWlnaHQ9IjEyIiBtYXJrZXJXaWR0aD0iMTIiIG1hcmtlclVuaXRzPSJ1c2VyU3BhY2VPblVzZSIgcmVmWT0iNSIgcmVmWD0iMCIgdmlld0JveD0iMCAwIDEwIDEwIiBjbGFzcz0ibWFya2VyIGZsb3djaGFydCIgaWQ9ImZsb3djaGFydC1wb2ludFN0YXJ0Ij48cGF0aCBzdHlsZT0ic3Ryb2tlLXdpZHRoOiAxOyBzdHJva2UtZGFzaGFycmF5OiAxLCAwOyIgY2xhc3M9ImFycm93TWFya2VyUGF0aCIgZD0iTSAwIDUgTCAxMCAxMCBMIDEwIDAgeiI+PC9wYXRoPjwvbWFya2VyPjxtYXJrZXIgb3JpZW50PSJhdXRvIiBtYXJrZXJIZWlnaHQ9IjExIiBtYXJrZXJXaWR0aD0iMTEiIG1hcmtlclVuaXRzPSJ1c2VyU3BhY2VPblVzZSIgcmVmWT0iNSIgcmVmWD0iMTEiIHZpZXdCb3g9IjAgMCAxMCAxMCIgY2xhc3M9Im1hcmtlciBmbG93Y2hhcnQiIGlkPSJmbG93Y2hhcnQtY2lyY2xlRW5kIj48Y2lyY2xlIHN0eWxlPSJzdHJva2Utd2lkdGg6IDE7IHN0cm9rZS1kYXNoYXJyYXk6IDEsIDA7IiBjbGFzcz0iYXJyb3dNYXJrZXJQYXRoIiByPSI1IiBjeT0iNSIgY3g9IjUiPjwvY2lyY2xlPjwvbWFya2VyPjxtYXJrZXIgb3JpZW50PSJhdXRvIiBtYXJrZXJIZWlnaHQ9IjExIiBtYXJrZXJXaWR0aD0iMTEiIG1hcmtlclVuaXRzPSJ1c2VyU3BhY2VPblVzZSIgcmVmWT0iNSIgcmVmWD0iLTEiIHZpZXdCb3g9IjAgMCAxMCAxMCIgY2xhc3M9Im1hcmtlciBmbG93Y2hhcnQiIGlkPSJmbG93Y2hhcnQtY2lyY2xlU3RhcnQiPjxjaXJjbGUgc3R5bGU9InN0cm9rZS13aWR0aDogMTsgc3Ryb2tlLWRhc2hhcnJheTogMSwgMDsiIGNsYXNzPSJhcnJvd01hcmtlclBhdGgiIHI9IjUiIGN5PSI1IiBjeD0iNSI+PC9jaXJjbGU+PC9tYXJrZXI+PG1hcmtlciBvcmllbnQ9ImF1dG8iIG1hcmtlckhlaWdodD0iMTEiIG1hcmtlcldpZHRoPSIxMSIgbWFya2VyVW5pdHM9InVzZXJTcGFjZU9uVXNlIiByZWZZPSI1LjIiIHJlZlg9IjEyIiB2aWV3Qm94PSIwIDAgMTEgMTEiIGNsYXNzPSJtYXJrZXIgY3Jvc3MgZmxvd2NoYXJ0IiBpZD0iZmxvd2NoYXJ0LWNyb3NzRW5kIj48cGF0aCBzdHlsZT0ic3Ryb2tlLXdpZHRoOiAyOyBzdHJva2UtZGFzaGFycmF5OiAxLCAwOyIgY2xhc3M9ImFycm93TWFya2VyUGF0aCIgZD0iTSAxLDEgbCA5LDkgTSAxMCwxIGwgLTksOSI+PC9wYXRoPjwvbWFya2VyPjxtYXJrZXIgb3JpZW50PSJhdXRvIiBtYXJrZXJIZWlnaHQ9IjExIiBtYXJrZXJXaWR0aD0iMTEiIG1hcmtlclVuaXRzPSJ1c2VyU3BhY2VPblVzZSIgcmVmWT0iNS4yIiByZWZYPSItMSIgdmlld0JveD0iMCAwIDExIDExIiBjbGFzcz0ibWFya2VyIGNyb3NzIGZsb3djaGFydCIgaWQ9ImZsb3djaGFydC1jcm9zc1N0YXJ0Ij48cGF0aCBzdHlsZT0ic3Ryb2tlLXdpZHRoOiAyOyBzdHJva2UtZGFzaGFycmF5OiAxLCAwOyIgY2xhc3M9ImFycm93TWFya2VyUGF0aCIgZD0iTSAxLDEgbCA5LDkgTSAxMCwxIGwgLTksOSI+PC9wYXRoPjwvbWFya2VyPjxnIGNsYXNzPSJyb290Ij48ZyBjbGFzcz0iY2x1c3RlcnMiPjwvZz48ZyBjbGFzcz0iZWRnZVBhdGhzIj48cGF0aCBtYXJrZXItZW5kPSJ1cmwoI2Zsb3djaGFydC1wb2ludEVuZCkiIHN0eWxlPSJmaWxsOm5vbmU7IiBjbGFzcz0iZWRnZS10aGlja25lc3Mtbm9ybWFsIGVkZ2UtcGF0dGVybi1zb2xpZCBmbG93Y2hhcnQtbGluayBMUy1BIExFLUIiIGlkPSJMLUEtQi0wIiBkPSJNMzU3Ljk3MjY1NjI1LDQyTDM1Ny45NzI2NTYyNSw0Ni4xNjY2NjY2NjY2NjY2NjRDMzU3Ljk3MjY1NjI1LDUwLjMzMzMzMzMzMzMzMzMzNiwzNTcuOTcyNjU2MjUsNTguNjY2NjY2NjY2NjY2NjY0LDM1Ny45NzI2NTYyNSw2N0MzNTcuOTcyNjU2MjUsNzUuMzMzMzMzMzMzMzMzMzMsMzU3Ljk3MjY1NjI1LDgzLjY2NjY2NjY2NjY2NjY3LDM1Ny45NzI2NTYyNSw4Ny44MzMzMzMzMzMzMzMzM0wzNTcuOTcyNjU2MjUsOTIiPjwvcGF0aD48cGF0aCBtYXJrZXItZW5kPSJ1cmwoI2Zsb3djaGFydC1wb2ludEVuZCkiIHN0eWxlPSJmaWxsOm5vbmU7IiBjbGFzcz0iZWRnZS10aGlja25lc3Mtbm9ybWFsIGVkZ2UtcGF0dGVybi1zb2xpZCBmbG93Y2hhcnQtbGluayBMUy1CIExFLUMiIGlkPSJMLUItQy0wIiBkPSJNMzU3Ljk3MjY1NjI1LDEyNkwzNTcuOTcyNjU2MjUsMTMwLjE2NjY2NjY2NjY2NjY2QzM1Ny45NzI2NTYyNSwxMzQuMzMzMzMzMzMzMzMzMzQsMzU3Ljk3MjY1NjI1LDE0Mi42NjY2NjY2NjY2NjY2NiwzNTcuOTcyNjU2MjUsMTUxQzM1Ny45NzI2NTYyNSwxNTkuMzMzMzMzMzMzMzMzMzQsMzU3Ljk3MjY1NjI1LDE2Ny42NjY2NjY2NjY2NjY2NiwzNTcuOTcyNjU2MjUsMTcxLjgzMzMzMzMzMzMzMzM0TDM1Ny45NzI2NTYyNSwxNzYiPjwvcGF0aD48cGF0aCBtYXJrZXItZW5kPSJ1cmwoI2Zsb3djaGFydC1wb2ludEVuZCkiIHN0eWxlPSJmaWxsOm5vbmU7IiBjbGFzcz0iZWRnZS10aGlja25lc3Mtbm9ybWFsIGVkZ2UtcGF0dGVybi1zb2xpZCBmbG93Y2hhcnQtbGluayBMUy1DIExFLUQiIGlkPSJMLUMtRC0wIiBkPSJNMzU3Ljk3MjY1NjI1LDIxMEwzNTcuOTcyNjU2MjUsMjE0LjE2NjY2NjY2NjY2NjY2QzM1Ny45NzI2NTYyNSwyMTguMzMzMzMzMzMzMzMzMzQsMzU3Ljk3MjY1NjI1LDIyNi42NjY2NjY2NjY2NjY2NiwzNTcuOTcyNjU2MjUsMjM1QzM1Ny45NzI2NTYyNSwyNDMuMzMzMzMzMzMzMzMzMzQsMzU3Ljk3MjY1NjI1LDI1MS42NjY2NjY2NjY2NjY2NiwzNTcuOTcyNjU2MjUsMjU1LjgzMzMzMzMzMzMzMzM0TDM1Ny45NzI2NTYyNSwyNjAiPjwvcGF0aD48cGF0aCBtYXJrZXItZW5kPSJ1cmwoI2Zsb3djaGFydC1wb2ludEVuZCkiIHN0eWxlPSJmaWxsOm5vbmU7IiBjbGFzcz0iZWRnZS10aGlja25lc3Mtbm9ybWFsIGVkZ2UtcGF0dGVybi1zb2xpZCBmbG93Y2hhcnQtbGluayBMUy1EIExFLUUiIGlkPSJMLUQtRS0wIiBkPSJNMzU3Ljk3MjY1NjI1LDI5NEwzNTcuOTcyNjU2MjUsMjk4LjE2NjY2NjY2NjY2NjdDMzU3Ljk3MjY1NjI1LDMwMi4zMzMzMzMzMzMzMzMzLDM1Ny45NzI2NTYyNSwzMTAuNjY2NjY2NjY2NjY2NywzNTcuOTcyNjU2MjUsMzE5QzM1Ny45NzI2NTYyNSwzMjcuMzMzMzMzMzMzMzMzMywzNTcuOTcyNjU2MjUsMzM1LjY2NjY2NjY2NjY2NjcsMzU3Ljk3MjY1NjI1LDMzOS44MzMzMzMzMzMzMzMzTDM1Ny45NzI2NTYyNSwzNDQiPjwvcGF0aD48cGF0aCBtYXJrZXItZW5kPSJ1cmwoI2Zsb3djaGFydC1wb2ludEVuZCkiIHN0eWxlPSJmaWxsOm5vbmU7IiBjbGFzcz0iZWRnZS10aGlja25lc3Mtbm9ybWFsIGVkZ2UtcGF0dGVybi1zb2xpZCBmbG93Y2hhcnQtbGluayBMUy1FIExFLUYiIGlkPSJMLUUtRi0wIiBkPSJNMzU3Ljk3MjY1NjI1LDM3OEwzNTcuOTcyNjU2MjUsMzgyLjE2NjY2NjY2NjY2NjdDMzU3Ljk3MjY1NjI1LDM4Ni4zMzMzMzMzMzMzMzMzLDM1Ny45NzI2NTYyNSwzOTQuNjY2NjY2NjY2NjY2NywzNTguMDU1OTg5NTgzMzMzMyw0MDMuMDgzMzMzMzMzMzMzM0MzNTguMTM5MzIyOTE2NjY2Nyw0MTEuNSwzNTguMzA1OTg5NTgzMzMzMyw0MjAsMzU4LjM4OTMyMjkxNjY2NjcsNDI0LjI1TDM1OC40NzI2NTYyNSw0MjguNSI+PC9wYXRoPjxwYXRoIG1hcmtlci1lbmQ9InVybCgjZmxvd2NoYXJ0LXBvaW50RW5kKSIgc3R5bGU9ImZpbGw6bm9uZTsiIGNsYXNzPSJlZGdlLXRoaWNrbmVzcy1ub3JtYWwgZWRnZS1wYXR0ZXJuLXNvbGlkIGZsb3djaGFydC1saW5rIExTLUYgTEUtRyIgaWQ9IkwtRi1HLTAiIGQ9Ik0zODUuMzYzOTE2MzU1MDcwMSw1MTcuNDgzNzM5ODk0OTNMMzk0LjE0MzEwNzM3OTIyNTA2LDUyNy42MzIyODMyNDU3NzQ5QzQwMi45MjIyOTg0MDMzODAxLDUzNy43ODA4MjY1OTY2MTk5LDQyMC40ODA2ODA0NTE2OTAwMyw1NTguMDc3OTEzMjk4MzA5OSw0MjkuMjU5ODcxNDc1ODQ1MDUsNTczLjk3NjQ1NjY0OTE1NUM0MzguMDM5MDYyNSw1ODkuODc1LDQzOC4wMzkwNjI1LDYwMS4zNzUsNDM4LjAzOTA2MjUsNjA3LjEyNUw0MzguMDM5MDYyNSw2MTIuODc1Ij48L3BhdGg+PHBhdGggbWFya2VyLWVuZD0idXJsKCNmbG93Y2hhcnQtcG9pbnRFbmQpIiBzdHlsZT0iZmlsbDpub25lOyIgY2xhc3M9ImVkZ2UtdGhpY2tuZXNzLW5vcm1hbCBlZGdlLXBhdHRlcm4tc29saWQgZmxvd2NoYXJ0LWxpbmsgTFMtRiBMRS1IIiBpZD0iTC1GLUgtMCIgZD0iTTMxNC4wOTY3MTU5NDAxOTg1LDQ5OS45OTkwNTk2OTAxOTg1TDI3MC45OTcyNjMyODM0OTg3NCw1MTMuMDYxNzE2NDA4NDk4OEMyMjcuODk3ODEwNjI2Nzk5MDEsNTI2LjEyNDM3MzEyNjc5OSwxNDEuNjk4OTA1MzEzMzk5NSw1NTIuMjQ5Njg2NTYzMzk5NSw5OC41OTk0NTI2NTY2OTk3NCw1NzMuODk1Njc2NjE1MDMzQzU1LjUsNTk1LjU0MTY2NjY2NjY2NjYsNTUuNSw2MTIuNzA4MzMzMzMzMzMzNCw1NS41LDYyOC4yOTE2NjY2NjY2NjY2QzU1LjUsNjQzLjg3NSw1NS41LDY1Ny44NzUsNTUuNSw2NzEuODc1QzU1LjUsNjg1Ljg3NSw1NS41LDY5OS44NzUsNTUuNSw3MTMuODc1QzU1LjUsNzI3Ljg3NSw1NS41LDc0MS44NzUsNTUuNSw3NjYuNDU4MzMzMzMzMzMzNEM1NS41LDc5MS4wNDE2NjY2NjY2NjY2LDU1LjUsODI2LjIwODMzMzMzMzMzMzQsNTUuNSw4NjIuOTU4MzMzMzMzMzMzNEM1NS41LDg5OS43MDgzMzMzMzMzMzM0LDU1LjUsOTM4LjA0MTY2NjY2NjY2NjYsNTUuNSw5NjUuNzkxNjY2NjY2NjY2NkM1NS41LDk5My41NDE2NjY2NjY2NjY2LDU1LjUsMTAxMC43MDgzMzMzMzMzMzM0LDU1LjUsMTAyNy44NzVDNTUuNSwxMDQ1LjA0MTY2NjY2NjY2NjcsNTUuNSwxMDYyLjIwODMzMzMzMzMzMzMsNTUuNSwxMDk1LjUzMTI1QzU1LjUsMTEyOC44NTQxNjY2NjY2NjY3LDU1LjUsMTE3OC4zMzMzMzMzMzMzMzMzLDU1LjUsMTIyNy44MTI1QzU1LjUsMTI3Ny4yOTE2NjY2NjY2NjY3LDU1LjUsMTMyNi43NzA4MzMzMzMzMzMzLDU1LjUsMTM1Ny4yNjA0MTY2NjY2NjY3QzU1LjUsMTM4Ny43NSw1NS41LDEzOTkuMjUsNTUuNSwxNDA1TDU1LjUsMTQxMC43NSI+PC9wYXRoPjxwYXRoIG1hcmtlci1lbmQ9InVybCgjZmxvd2NoYXJ0LXBvaW50RW5kKSIgc3R5bGU9ImZpbGw6bm9uZTsiIGNsYXNzPSJlZGdlLXRoaWNrbmVzcy1ub3JtYWwgZWRnZS1wYXR0ZXJuLXNvbGlkIGZsb3djaGFydC1saW5rIExTLUggTEUtSSIgaWQ9IkwtSC1JLTAiIGQ9Ik01NS41LDE0NDQuNzVMNTUuNSwxNDQ4LjkxNjY2NjY2NjY2NjdDNTUuNSwxNDUzLjA4MzMzMzMzMzMzMzMsNTUuNSwxNDYxLjQxNjY2NjY2NjY2NjcsNzUuMDQxNjY2NjY2NjY2NjcsMTQ3MS4yNDM2NzgxNjA5MTk0Qzk0LjU4MzMzMzMzMzMzMzMzLDE0ODEuMDcwNjg5NjU1MTcyNiwxMzMuNjY2NjY2NjY2NjY2NjYsMTQ5Mi4zOTEzNzkzMTAzNDUsMTUzLjIwODMzMzMzMzMzMzM0LDE0OTguMDUxNzI0MTM3OTMxMkwxNzIuNzUsMTUwMy43MTIwNjg5NjU1MTczIj48L3BhdGg+PHBhdGggbWFya2VyLWVuZD0idXJsKCNmbG93Y2hhcnQtcG9pbnRFbmQpIiBzdHlsZT0iZmlsbDpub25lOyIgY2xhc3M9ImVkZ2UtdGhpY2tuZXNzLW5vcm1hbCBlZGdlLXBhdHRlcm4tc29saWQgZmxvd2NoYXJ0LWxpbmsgTFMtRyBMRS1KIiBpZD0iTC1HLUotMCIgZD0iTTQzOC4wMzkwNjI1LDY0Ni44NzVMNDM4LjAzOTA2MjUsNjUxLjA0MTY2NjY2NjY2NjZDNDM4LjAzOTA2MjUsNjU1LjIwODMzMzMzMzMzMzQsNDM4LjAzOTA2MjUsNjYzLjU0MTY2NjY2NjY2NjYsNDM4LjAzOTA2MjUsNjcxLjg3NUM0MzguMDM5MDYyNSw2ODAuMjA4MzMzMzMzMzMzNCw0MzguMDM5MDYyNSw2ODguNTQxNjY2NjY2NjY2Niw0MzguMDM5MDYyNSw2OTIuNzA4MzMzMzMzMzMzNEw0MzguMDM5MDYyNSw2OTYuODc1Ij48L3BhdGg+PHBhdGggbWFya2VyLWVuZD0idXJsKCNmbG93Y2hhcnQtcG9pbnRFbmQpIiBzdHlsZT0iZmlsbDpub25lOyIgY2xhc3M9ImVkZ2UtdGhpY2tuZXNzLW5vcm1hbCBlZGdlLXBhdHRlcm4tc29saWQgZmxvd2NoYXJ0LWxpbmsgTFMtSiBMRS1LIiBpZD0iTC1KLUstMCIgZD0iTTQzOC4wMzkwNjI1LDczMC44NzVMNDM4LjAzOTA2MjUsNzM1LjA0MTY2NjY2NjY2NjZDNDM4LjAzOTA2MjUsNzM5LjIwODMzMzMzMzMzMzQsNDM4LjAzOTA2MjUsNzQ3LjU0MTY2NjY2NjY2NjYsNDM4LjEyMjM5NTgzMzMzMzMsNzU1Ljk1ODMzMzMzMzMzMzRDNDM4LjIwNTcyOTE2NjY2NjcsNzY0LjM3NSw0MzguMzcyMzk1ODMzMzMzMyw3NzIuODc1LDQzOC40NTU3MjkxNjY2NjY3LDc3Ny4xMjVMNDM4LjUzOTA2MjUsNzgxLjM3NSI+PC9wYXRoPjxwYXRoIG1hcmtlci1lbmQ9InVybCgjZmxvd2NoYXJ0LXBvaW50RW5kKSIgc3R5bGU9ImZpbGw6bm9uZTsiIGNsYXNzPSJlZGdlLXRoaWNrbmVzcy1ub3JtYWwgZWRnZS1wYXR0ZXJuLXNvbGlkIGZsb3djaGFydC1saW5rIExTLUsgTEUtTCIgaWQ9IkwtSy1MLTAiIGQ9Ik0zODQuODc0NTIyNzM4MDE3MDUsODg4LjcxMDQ2MDIzODAxN0wzNTUuNDA2NTAzMzIzMzQ3NSw5MDMuMzIxMjE2ODY1MDE0MkMzMjUuOTM4NDgzOTA4Njc4MDUsOTE3LjkzMTk3MzQ5MjAxMTQsMjY3LjAwMjQ0NTA3OTMzOSw5NDcuMTUzNDg2NzQ2MDA1NiwyMzcuNTM0NDI1NjY0NjY5NSw5NzAuMzQ3NTc2NzA2MzM2MUMyMDguMDY2NDA2MjUsOTkzLjU0MTY2NjY2NjY2NjYsMjA4LjA2NjQwNjI1LDEwMTAuNzA4MzMzMzMzMzMzNCwyMDguMDY2NDA2MjUsMTAyNy44NzVDMjA4LjA2NjQwNjI1LDEwNDUuMDQxNjY2NjY2NjY2NywyMDguMDY2NDA2MjUsMTA2Mi4yMDgzMzMzMzMzMzMzLDIwOC4wNjY0MDYyNSwxMDk1LjUzMTI1QzIwOC4wNjY0MDYyNSwxMTI4Ljg1NDE2NjY2NjY2NjcsMjA4LjA2NjQwNjI1LDExNzguMzMzMzMzMzMzMzMzMywyMDguMDY2NDA2MjUsMTIyNy44MTI1QzIwOC4wNjY0MDYyNSwxMjc3LjI5MTY2NjY2NjY2NjcsMjA4LjA2NjQwNjI1LDEzMjYuNzcwODMzMzMzMzMzMywyMDguMDY2NDA2MjUsMTM1Ny4yNjA0MTY2NjY2NjY3QzIwOC4wNjY0MDYyNSwxMzg3Ljc1LDIwOC4wNjY0MDYyNSwxMzk5LjI1LDIwOC4wNjY0MDYyNSwxNDA1TDIwOC4wNjY0MDYyNSwxNDEwLjc1Ij48L3BhdGg+PHBhdGggbWFya2VyLWVuZD0idXJsKCNmbG93Y2hhcnQtcG9pbnRFbmQpIiBzdHlsZT0iZmlsbDpub25lOyIgY2xhc3M9ImVkZ2UtdGhpY2tuZXNzLW5vcm1hbCBlZGdlLXBhdHRlcm4tc29saWQgZmxvd2NoYXJ0LWxpbmsgTFMtTCBMRS1JIiBpZD0iTC1MLUktMCIgZD0iTTIwOC4wNjY0MDYyNSwxNDQ0Ljc1TDIwOC4wNjY0MDYyNSwxNDQ4LjkxNjY2NjY2NjY2NjdDMjA4LjA2NjQwNjI1LDE0NTMuMDgzMzMzMzMzMzMzMywyMDguMDY2NDA2MjUsMTQ2MS40MTY2NjY2NjY2NjY3LDIwNy4zMTU3NzA3MDkzMjU0LDE0NjkuNzVDMjA2LjU2NTEzNTE2ODY1MDgsMTQ3OC4wODMzMzMzMzMzMzMzLDIwNS4wNjM4NjQwODczMDE2LDE0ODYuNDE2NjY2NjY2NjY2NywyMDQuMzEzMjI4NTQ2NjI3LDE0OTAuNTgzMzMzMzMzMzMzM0wyMDMuNTYyNTkzMDA1OTUyMzgsMTQ5NC43NSI+PC9wYXRoPjxwYXRoIG1hcmtlci1lbmQ9InVybCgjZmxvd2NoYXJ0LXBvaW50RW5kKSIgc3R5bGU9ImZpbGw6bm9uZTsiIGNsYXNzPSJlZGdlLXRoaWNrbmVzcy1ub3JtYWwgZWRnZS1wYXR0ZXJuLXNvbGlkIGZsb3djaGFydC1saW5rIExTLUsgTEUtTSIgaWQ9IkwtSy1NLTAiIGQ9Ik00NzAuMTc4NzYyMzE4NTcxNjcsOTEwLjczNTMwMDE4MTQyODNMNDc3LjIzMzYwNDAxNTQ3NjQzLDkyMS42NzUyNTAxNTExOTAyQzQ4NC4yODg0NDU3MTIzODExMyw5MzIuNjE1MjAwMTIwOTUyMiw0OTguMzk4MTI5MTA2MTkwNTQsOTU0LjQ5NTEwMDA2MDQ3Niw1MDUuNDUyOTcwODAzMDk1Myw5NzEuMTg1MDUwMDMwMjM4QzUxMi41MDc4MTI1LDk4Ny44NzUsNTEyLjUwNzgxMjUsOTk5LjM3NSw1MTIuNTA3ODEyNSwxMDA1LjEyNUw1MTIuNTA3ODEyNSwxMDEwLjg3NSI+PC9wYXRoPjxwYXRoIG1hcmtlci1lbmQ9InVybCgjZmxvd2NoYXJ0LXBvaW50RW5kKSIgc3R5bGU9ImZpbGw6bm9uZTsiIGNsYXNzPSJlZGdlLXRoaWNrbmVzcy1ub3JtYWwgZWRnZS1wYXR0ZXJuLXNvbGlkIGZsb3djaGFydC1saW5rIExTLU0gTEUtWCIgaWQ9IkwtTS1YLTAiIGQ9Ik01MTIuNTA3ODEyNSwxMDQ0Ljg3NUw1MTIuNTA3ODEyNSwxMDUwLjYyNUM1MTIuNTA3ODEyNSwxMDU2LjM3NSw1MTIuNTA3ODEyNSwxMDY3Ljg3NSw1MTIuNTkxMTQ1ODMzMzMzNCwxMDc5LjQ1ODMzMzMzMzMzMzNDNTEyLjY3NDQ3OTE2NjY2NjYsMTA5MS4wNDE2NjY2NjY2NjY3LDUxMi44NDExNDU4MzMzMzM0LDExMDIuNzA4MzMzMzMzMzMzMyw1MTIuOTI0NDc5MTY2NjY2NiwxMTA4LjU0MTY2NjY2NjY2NjdMNTEzLjAwNzgxMjUsMTExNC4zNzUiPjwvcGF0aD48cGF0aCBtYXJrZXItZW5kPSJ1cmwoI2Zsb3djaGFydC1wb2ludEVuZCkiIHN0eWxlPSJmaWxsOm5vbmU7IiBjbGFzcz0iZWRnZS10aGlja25lc3Mtbm9ybWFsIGVkZ2UtcGF0dGVybi1zb2xpZCBmbG93Y2hhcnQtbGluayBMUy1YIExFLU4iIGlkPSJMLVgtTi0wIiBkPSJNNTU5LjUyNTI3Mjk5MDgyNDIsMTI5NS43MzI1Mzk1MDkxNzU3TDU2OC43NTg0NzM1OTYyNzYxLDEzMDkuMTUyMTE2MjU3NjQ2NEM1NzcuOTkxNjc0MjAxNzI3OCwxMzIyLjU3MTY5MzAwNjExNzEsNTk2LjQ1ODA3NTQxMjYzMTUsMTM0OS40MTA4NDY1MDMwNTg2LDYwNS43NzQ2MDkzNTE0MTY2LDEzNjguNjYzNzU2NTg0ODYyNUM2MTUuMDkxMTQzMjkwMjAxOCwxMzg3LjkxNjY2NjY2NjY2NjcsNjE1LjI1NzgwOTk1Njg2ODUsMTM5OS41ODMzMzMzMzMzMzMzLDYxNS4zNDExNDMyOTAyMDE4LDE0MDUuNDE2NjY2NjY2NjY2N0w2MTUuNDI0NDc2NjIzNTM1MiwxNDExLjI1Ij48L3BhdGg+PHBhdGggbWFya2VyLWVuZD0idXJsKCNmbG93Y2hhcnQtcG9pbnRFbmQpIiBzdHlsZT0iZmlsbDpub25lOyIgY2xhc3M9ImVkZ2UtdGhpY2tuZXNzLW5vcm1hbCBlZGdlLXBhdHRlcm4tc29saWQgZmxvd2NoYXJ0LWxpbmsgTFMtWCBMRS1ZIiBpZD0iTC1YLVktMCIgZD0iTTQ1NC4zNTY0NzE4ODYwNTM0LDEyODMuNTk4NjU5Mzg2MDUzNEw0MzcuODAyOTE5MjgwMDQ0NSwxMjk5LjA0MDU0OTQ4ODM3NzhDNDIxLjI0OTM2NjY3NDAzNTYsMTMxNC40ODI0Mzk1OTA3MDI0LDM4OC4xNDIyNjE0NjIwMTc4LDEzNDUuMzY2MjE5Nzk1MzUxLDM3MS41ODg3MDg4NTYwMDg5LDEzNjYuNTU4MTA5ODk3Njc1NkMzNTUuMDM1MTU2MjUsMTM4Ny43NSwzNTUuMDM1MTU2MjUsMTM5OS4yNSwzNTUuMDM1MTU2MjUsMTQwNUwzNTUuMDM1MTU2MjUsMTQxMC43NSI+PC9wYXRoPjxwYXRoIG1hcmtlci1lbmQ9InVybCgjZmxvd2NoYXJ0LXBvaW50RW5kKSIgc3R5bGU9ImZpbGw6bm9uZTsiIGNsYXNzPSJlZGdlLXRoaWNrbmVzcy1ub3JtYWwgZWRnZS1wYXR0ZXJuLXNvbGlkIGZsb3djaGFydC1saW5rIExTLVkgTEUtSSIgaWQ9IkwtWS1JLTAiIGQ9Ik0zNTUuMDM1MTU2MjUsMTQ0NC43NUwzNTUuMDM1MTU2MjUsMTQ0OC45MTY2NjY2NjY2NjY3QzM1NS4wMzUxNTYyNSwxNDUzLjA4MzMzMzMzMzMzMzMsMzU1LjAzNTE1NjI1LDE0NjEuNDE2NjY2NjY2NjY2NywzMzMuOTA0Mjk2ODc1LDE0NzEuMzI2MzM3ODA3NDM2NEMzMTIuNzczNDM3NSwxNDgxLjIzNjAwODk0ODIwNjUsMjcwLjUxMTcxODc1LDE0OTIuNzIyMDE3ODk2NDEzMywyNDkuMzgwODU5Mzc1LDE0OTguNDY1MDIyMzcwNTE2NEwyMjguMjUsMTUwNC4yMDgwMjY4NDQ2MTk4Ij48L3BhdGg+PHBhdGggbWFya2VyLWVuZD0idXJsKCNmbG93Y2hhcnQtcG9pbnRFbmQpIiBzdHlsZT0iZmlsbDpub25lOyIgY2xhc3M9ImVkZ2UtdGhpY2tuZXNzLW5vcm1hbCBlZGdlLXBhdHRlcm4tc29saWQgZmxvd2NoYXJ0LWxpbmsgTFMtTiBMRS1PIiBpZD0iTC1OLU8tMCIgZD0iTTU3MS45NzQyMzQ4MDgwNTk1LDE0NDUuMjQ5OTk5OTk5OTk5OEw1NjEuMjQxMzMyNDAyMzA1NCwxNDQ5LjMzMzMzMzMzMzMzMzNDNTUwLjUwODQyOTk5NjU1MTQsMTQ1My40MTY2NjY2NjY2NjY3LDUyOS4wNDI2MjUxODUwNDMyLDE0NjEuNTgzMzMzMzMzMzMzMyw1MTguMzA5NzIyNzc5Mjg5MiwxNDY5LjgzMzMzMzMzMzMzMzNDNTA3LjU3NjgyMDM3MzUzNTE2LDE0NzguMDgzMzMzMzMzMzMzMyw1MDcuNTc2ODIwMzczNTM1MTYsMTQ4Ni40MTY2NjY2NjY2NjY3LDUwNy41NzY4MjAzNzM1MzUxNiwxNDkwLjU4MzMzMzMzMzMzMzNMNTA3LjU3NjgyMDM3MzUzNTE2LDE0OTQuNzUiPjwvcGF0aD48cGF0aCBtYXJrZXItZW5kPSJ1cmwoI2Zsb3djaGFydC1wb2ludEVuZCkiIHN0eWxlPSJmaWxsOm5vbmU7IiBjbGFzcz0iZWRnZS10aGlja25lc3Mtbm9ybWFsIGVkZ2UtcGF0dGVybi1zb2xpZCBmbG93Y2hhcnQtbGluayBMUy1PIExFLVAiIGlkPSJMLU8tUC0wIiBkPSJNNTA3LjU3NjgyMDM3MzUzNTE2LDE1MjguNzVMNTA3LjU3NjgyMDM3MzUzNTE2LDE1MzIuOTE2NjY2NjY2NjY2N0M1MDcuNTc2ODIwMzczNTM1MTYsMTUzNy4wODMzMzMzMzMzMzMzLDUwNy41NzY4MjAzNzM1MzUxNiwxNTQ1LjQxNjY2NjY2NjY2NjcsNTA3LjU3NjgyMDM3MzUzNTE2LDE1NTMuNzVDNTA3LjU3NjgyMDM3MzUzNTE2LDE1NjIuMDgzMzMzMzMzMzMzMyw1MDcuNTc2ODIwMzczNTM1MTYsMTU3MC40MTY2NjY2NjY2NjY3LDUwNy41NzY4MjAzNzM1MzUxNiwxNTc0LjU4MzMzMzMzMzMzMzNMNTA3LjU3NjgyMDM3MzUzNTE2LDE1NzguNzUiPjwvcGF0aD48cGF0aCBtYXJrZXItZW5kPSJ1cmwoI2Zsb3djaGFydC1wb2ludEVuZCkiIHN0eWxlPSJmaWxsOm5vbmU7IiBjbGFzcz0iZWRnZS10aGlja25lc3Mtbm9ybWFsIGVkZ2UtcGF0dGVybi1zb2xpZCBmbG93Y2hhcnQtbGluayBMUy1QIExFLVEiIGlkPSJMLVAtUS0wIiBkPSJNNTA3LjU3NjgyMDM3MzUzNTE2LDE2MTIuNzVMNTA3LjU3NjgyMDM3MzUzNTE2LDE2MTYuOTE2NjY2NjY2NjY2N0M1MDcuNTc2ODIwMzczNTM1MTYsMTYyMS4wODMzMzMzMzMzMzMzLDUwNy41NzY4MjAzNzM1MzUxNiwxNjI5LjQxNjY2NjY2NjY2NjcsNTA3LjU3NjgyMDM3MzUzNTE2LDE2MzcuNzVDNTA3LjU3NjgyMDM3MzUzNTE2LDE2NDYuMDgzMzMzMzMzMzMzMyw1MDcuNTc2ODIwMzczNTM1MTYsMTY1NC40MTY2NjY2NjY2NjY3LDUwNy41NzY4MjAzNzM1MzUxNiwxNjU4LjU4MzMzMzMzMzMzMzNMNTA3LjU3NjgyMDM3MzUzNTE2LDE2NjIuNzUiPjwvcGF0aD48cGF0aCBtYXJrZXItZW5kPSJ1cmwoI2Zsb3djaGFydC1wb2ludEVuZCkiIHN0eWxlPSJmaWxsOm5vbmU7IiBjbGFzcz0iZWRnZS10aGlja25lc3Mtbm9ybWFsIGVkZ2UtcGF0dGVybi1zb2xpZCBmbG93Y2hhcnQtbGluayBMUy1RIExFLVIiIGlkPSJMLVEtUi0wIiBkPSJNNTA3LjU3NjgyMDM3MzUzNTE2LDE2OTYuNzVMNTA3LjU3NjgyMDM3MzUzNTE2LDE3MDAuOTE2NjY2NjY2NjY2N0M1MDcuNTc2ODIwMzczNTM1MTYsMTcwNS4wODMzMzMzMzMzMzMzLDUwNy41NzY4MjAzNzM1MzUxNiwxNzEzLjQxNjY2NjY2NjY2NjcsNTA3LjU3NjgyMDM3MzUzNTE2LDE3MjEuNzVDNTA3LjU3NjgyMDM3MzUzNTE2LDE3MzAuMDgzMzMzMzMzMzMzMyw1MDcuNTc2ODIwMzczNTM1MTYsMTczOC40MTY2NjY2NjY2NjY3LDUwNy41NzY4MjAzNzM1MzUxNiwxNzQyLjU4MzMzMzMzMzMzMzNMNTA3LjU3NjgyMDM3MzUzNTE2LDE3NDYuNzUiPjwvcGF0aD48cGF0aCBtYXJrZXItZW5kPSJ1cmwoI2Zsb3djaGFydC1wb2ludEVuZCkiIHN0eWxlPSJmaWxsOm5vbmU7IiBjbGFzcz0iZWRnZS10aGlja25lc3Mtbm9ybWFsIGVkZ2UtcGF0dGVybi1zb2xpZCBmbG93Y2hhcnQtbGluayBMUy1SIExFLVMiIGlkPSJMLVItUy0wIiBkPSJNNTA3LjU3NjgyMDM3MzUzNTE2LDE3ODAuNzVMNTA3LjU3NjgyMDM3MzUzNTE2LDE3ODQuOTE2NjY2NjY2NjY2N0M1MDcuNTc2ODIwMzczNTM1MTYsMTc4OS4wODMzMzMzMzMzMzMzLDUwNy41NzY4MjAzNzM1MzUxNiwxNzk3LjQxNjY2NjY2NjY2NjcsNTA3LjU3NjgyMDM3MzUzNTE2LDE4MDUuNzVDNTA3LjU3NjgyMDM3MzUzNTE2LDE4MTQuMDgzMzMzMzMzMzMzMyw1MDcuNTc2ODIwMzczNTM1MTYsMTgyMi40MTY2NjY2NjY2NjY3LDUwNy41NzY4MjAzNzM1MzUxNiwxODI2LjU4MzMzMzMzMzMzMzNMNTA3LjU3NjgyMDM3MzUzNTE2LDE4MzAuNzUiPjwvcGF0aD48cGF0aCBtYXJrZXItZW5kPSJ1cmwoI2Zsb3djaGFydC1wb2ludEVuZCkiIHN0eWxlPSJmaWxsOm5vbmU7IiBjbGFzcz0iZWRnZS10aGlja25lc3Mtbm9ybWFsIGVkZ2UtcGF0dGVybi1zb2xpZCBmbG93Y2hhcnQtbGluayBMUy1TIExFLVQiIGlkPSJMLVMtVC0wIiBkPSJNNTA3LjU3NjgyMDM3MzUzNTE2LDE4NjQuNzVMNTA3LjU3NjgyMDM3MzUzNTE2LDE4NjguOTE2NjY2NjY2NjY2N0M1MDcuNTc2ODIwMzczNTM1MTYsMTg3My4wODMzMzMzMzMzMzMzLDUwNy41NzY4MjAzNzM1MzUxNiwxODgxLjQxNjY2NjY2NjY2NjcsNTA3LjU3NjgyMDM3MzUzNTE2LDE4ODkuNzVDNTA3LjU3NjgyMDM3MzUzNTE2LDE4OTguMDgzMzMzMzMzMzMzMyw1MDcuNTc2ODIwMzczNTM1MTYsMTkwNi40MTY2NjY2NjY2NjY3LDUwNy41NzY4MjAzNzM1MzUxNiwxOTEwLjU4MzMzMzMzMzMzMzNMNTA3LjU3NjgyMDM3MzUzNTE2LDE5MTQuNzUiPjwvcGF0aD48cGF0aCBtYXJrZXItZW5kPSJ1cmwoI2Zsb3djaGFydC1wb2ludEVuZCkiIHN0eWxlPSJmaWxsOm5vbmU7IiBjbGFzcz0iZWRnZS10aGlja25lc3Mtbm9ybWFsIGVkZ2UtcGF0dGVybi1zb2xpZCBmbG93Y2hhcnQtbGluayBMUy1UIExFLVUiIGlkPSJMLVQtVS0wIiBkPSJNNTA3LjU3NjgyMDM3MzUzNTE2LDE5NDguNzVMNTA3LjU3NjgyMDM3MzUzNTE2LDE5NTIuOTE2NjY2NjY2NjY2N0M1MDcuNTc2ODIwMzczNTM1MTYsMTk1Ny4wODMzMzMzMzMzMzMzLDUwNy41NzY4MjAzNzM1MzUxNiwxOTY1LjQxNjY2NjY2NjY2NjcsNTIzLjgzMjk1ODkxMzk1MTIsMTk3NC41NjMwNTgzMzA4MzJDNTQwLjA4OTA5NzQ1NDM2NzIsMTk4My43MDk0NDk5OTQ5OTc0LDU3Mi42MDEzNzQ1MzUxOTkyLDE5OTMuNjY4ODk5OTg5OTk1LDU4OC44NTc1MTMwNzU2MTUyLDE5OTguNjQ4NjI0OTg3NDkzNkw2MDUuMTEzNjUxNjE2MDMxMiwyMDAzLjYyODM0OTk4NDk5MjIiPjwvcGF0aD48cGF0aCBtYXJrZXItZW5kPSJ1cmwoI2Zsb3djaGFydC1wb2ludEVuZCkiIHN0eWxlPSJmaWxsOm5vbmU7IiBjbGFzcz0iZWRnZS10aGlja25lc3Mtbm9ybWFsIGVkZ2UtcGF0dGVybi1zb2xpZCBmbG93Y2hhcnQtbGluayBMUy1VIExFLU4iIGlkPSJMLVUtTi0wIiBkPSJNNjI1LjczNTMwMTYzMTAzOTEsMjAwMy42MjgzNDk5ODQ5OTIyTDY0MS44MjQ3NzM1MDQ3ODg0LDE5OTguNjQ4NjI0OTg3NDkzM0M2NTcuOTE0MjQ1Mzc4NTM3OCwxOTkzLjY2ODg5OTk4OTk5NSw2OTAuMDkzMTg5MTI2MDM2NSwxOTgzLjcwOTQ0OTk5NDk5NzQsNzA2LjE4MjY2MDk5OTc4NTgsMTk3MS43Mjk3MjQ5OTc0OTg4QzcyMi4yNzIxMzI4NzM1MzUyLDE5NTkuNzUsNzIyLjI3MjEzMjg3MzUzNTIsMTk0NS43NSw3MjIuMjcyMTMyODczNTM1MiwxOTMxLjc1QzcyMi4yNzIxMzI4NzM1MzUyLDE5MTcuNzUsNzIyLjI3MjEzMjg3MzUzNTIsMTkwMy43NSw3MjIuMjcyMTMyODczNTM1MiwxODg5Ljc1QzcyMi4yNzIxMzI4NzM1MzUyLDE4NzUuNzUsNzIyLjI3MjEzMjg3MzUzNTIsMTg2MS43NSw3MjIuMjcyMTMyODczNTM1MiwxODQ3Ljc1QzcyMi4yNzIxMzI4NzM1MzUyLDE4MzMuNzUsNzIyLjI3MjEzMjg3MzUzNTIsMTgxOS43NSw3MjIuMjcyMTMyODczNTM1MiwxODA1Ljc1QzcyMi4yNzIxMzI4NzM1MzUyLDE3OTEuNzUsNzIyLjI3MjEzMjg3MzUzNTIsMTc3Ny43NSw3MjIuMjcyMTMyODczNTM1MiwxNzYzLjc1QzcyMi4yNzIxMzI4NzM1MzUyLDE3NDkuNzUsNzIyLjI3MjEzMjg3MzUzNTIsMTczNS43NSw3MjIuMjcyMTMyODczNTM1MiwxNzIxLjc1QzcyMi4yNzIxMzI4NzM1MzUyLDE3MDcuNzUsNzIyLjI3MjEzMjg3MzUzNTIsMTY5My43NSw3MjIuMjcyMTMyODczNTM1MiwxNjc5Ljc1QzcyMi4yNzIxMzI4NzM1MzUyLDE2NjUuNzUsNzIyLjI3MjEzMjg3MzUzNTIsMTY1MS43NSw3MjIuMjcyMTMyODczNTM1MiwxNjM3Ljc1QzcyMi4yNzIxMzI4NzM1MzUyLDE2MjMuNzUsNzIyLjI3MjEzMjg3MzUzNTIsMTYwOS43NSw3MjIuMjcyMTMyODczNTM1MiwxNTk1Ljc1QzcyMi4yNzIxMzI4NzM1MzUyLDE1ODEuNzUsNzIyLjI3MjEzMjg3MzUzNTIsMTU2Ny43NSw3MjIuMjcyMTMyODczNTM1MiwxNTUzLjc1QzcyMi4yNzIxMzI4NzM1MzUyLDE1MzkuNzUsNzIyLjI3MjEzMjg3MzUzNTIsMTUyNS43NSw3MjIuMjcyMTMyODczNTM1MiwxNTExLjc1QzcyMi4yNzIxMzI4NzM1MzUyLDE0OTcuNzUsNzIyLjI3MjEzMjg3MzUzNTIsMTQ4My43NSw3MTEuNzA1ODk3MTM0NDQ3NywxNDcyLjY2NjY2NjY2NjY2NjdDNzAxLjEzOTY2MTM5NTM2MDMsMTQ2MS41ODMzMzMzMzMzMzMzLDY4MC4wMDcxODk5MTcxODU3LDE0NTMuNDE2NjY2NjY2NjY2Nyw2NjkuNDQwOTU0MTc4MDk4MiwxNDQ5LjMzMzMzMzMzMzMzM0w2NTguODc0NzE4NDM5MDEwOCwxNDQ1LjI0OTk5OTk5OTk5OTgiPjwvcGF0aD48cGF0aCBtYXJrZXItZW5kPSJ1cmwoI2Zsb3djaGFydC1wb2ludEVuZCkiIHN0eWxlPSJmaWxsOm5vbmU7IiBjbGFzcz0iZWRnZS10aGlja25lc3Mtbm9ybWFsIGVkZ2UtcGF0dGVybi1zb2xpZCBmbG93Y2hhcnQtbGluayBMUy1VIExFLVYiIGlkPSJMLVUtVi0wIiBkPSJNNjE1LjQyNDQ3NjYyMzUzNTIsMjAxNC4yNUw2MTUuMzQxMTQzMjkwMjAxOCwyMDE4LjMzMzMzMzMzMzMzMzNDNjE1LjI1NzgwOTk1Njg2ODUsMjAyMi40MTY2NjY2NjY2NjY3LDYxNS4wOTExNDMyOTAyMDE4LDIwMzAuNTgzMzMzMzMzMzMzMyw2MTUuMDA3ODA5OTU2ODY4NSwyMDM4LjgzMzMzMzMzMzMzMzNDNjE0LjkyNDQ3NjYyMzUzNTIsMjA0Ny4wODMzMzMzMzMzMzMzLDYxNC45MjQ0NzY2MjM1MzUyLDIwNTUuNDE2NjY2NjY2NjY2NSw2MTQuOTI0NDc2NjIzNTM1MiwyMDU5LjU4MzMzMzMzMzMzMzVMNjE0LjkyNDQ3NjYyMzUzNTIsMjA2My43NSI+PC9wYXRoPjwvZz48ZyBjbGFzcz0iZWRnZUxhYmVscyI+PGcgY2xhc3M9ImVkZ2VMYWJlbCI+PGcgdHJhbnNmb3JtPSJ0cmFuc2xhdGUoMCwgMCkiIGNsYXNzPSJsYWJlbCI+PHJlY3QgaGVpZ2h0PSIwIiB3aWR0aD0iMCIgcnk9IjAiIHJ4PSIwIj48L3JlY3Q+PHRleHQgc3R5bGU9IiI+PHRzcGFuIGNsYXNzPSJyb3ciIHg9IjAiIGR5PSIxZW0iIHhtbDpzcGFjZT0icHJlc2VydmUiPjwvdHNwYW4+PC90ZXh0PjwvZz48L2c+PGcgY2xhc3M9ImVkZ2VMYWJlbCI+PGcgdHJhbnNmb3JtPSJ0cmFuc2xhdGUoMCwgMCkiIGNsYXNzPSJsYWJlbCI+PHJlY3QgaGVpZ2h0PSIwIiB3aWR0aD0iMCIgcnk9IjAiIHJ4PSIwIj48L3JlY3Q+PHRleHQgc3R5bGU9IiI+PHRzcGFuIGNsYXNzPSJyb3ciIHg9IjAiIGR5PSIxZW0iIHhtbDpzcGFjZT0icHJlc2VydmUiPjwvdHNwYW4+PC90ZXh0PjwvZz48L2c+PGcgY2xhc3M9ImVkZ2VMYWJlbCI+PGcgdHJhbnNmb3JtPSJ0cmFuc2xhdGUoMCwgMCkiIGNsYXNzPSJsYWJlbCI+PHJlY3QgaGVpZ2h0PSIwIiB3aWR0aD0iMCIgcnk9IjAiIHJ4PSIwIj48L3JlY3Q+PHRleHQgc3R5bGU9IiI+PHRzcGFuIGNsYXNzPSJyb3ciIHg9IjAiIGR5PSIxZW0iIHhtbDpzcGFjZT0icHJlc2VydmUiPjwvdHNwYW4+PC90ZXh0PjwvZz48L2c+PGcgY2xhc3M9ImVkZ2VMYWJlbCI+PGcgdHJhbnNmb3JtPSJ0cmFuc2xhdGUoMCwgMCkiIGNsYXNzPSJsYWJlbCI+PHJlY3QgaGVpZ2h0PSIwIiB3aWR0aD0iMCIgcnk9IjAiIHJ4PSIwIj48L3JlY3Q+PHRleHQgc3R5bGU9IiI+PHRzcGFuIGNsYXNzPSJyb3ciIHg9IjAiIGR5PSIxZW0iIHhtbDpzcGFjZT0icHJlc2VydmUiPjwvdHNwYW4+PC90ZXh0PjwvZz48L2c+PGcgY2xhc3M9ImVkZ2VMYWJlbCI+PGcgdHJhbnNmb3JtPSJ0cmFuc2xhdGUoMCwgMCkiIGNsYXNzPSJsYWJlbCI+PHJlY3QgaGVpZ2h0PSIwIiB3aWR0aD0iMCIgcnk9IjAiIHJ4PSIwIj48L3JlY3Q+PHRleHQgc3R5bGU9IiI+PHRzcGFuIGNsYXNzPSJyb3ciIHg9IjAiIGR5PSIxZW0iIHhtbDpzcGFjZT0icHJlc2VydmUiPjwvdHNwYW4+PC90ZXh0PjwvZz48L2c+PGcgdHJhbnNmb3JtPSJ0cmFuc2xhdGUoNDM4LjAzOTA2MjUsIDU3OC4zNzUpIiBjbGFzcz0iZWRnZUxhYmVsIj48ZyB0cmFuc2Zvcm09InRyYW5zbGF0ZSgtMTIuMDg1OTM3NSwgLTkuNSkiIGNsYXNzPSJsYWJlbCI+PHJlY3QgaGVpZ2h0PSIxOS4wMDAyMDQwODYzMDM3MSIgd2lkdGg9IjI0LjE2MjAxNzgyMjI2NTYyNSIgcnk9IjAiIHJ4PSIwIj48L3JlY3Q+PHRleHQgc3R5bGU9IiI+PHRzcGFuIGNsYXNzPSJyb3ciIHg9IjAiIGR5PSIxZW0iIHhtbDpzcGFjZT0icHJlc2VydmUiPlllczwvdHNwYW4+PC90ZXh0PjwvZz48L2c+PGcgdHJhbnNmb3JtPSJ0cmFuc2xhdGUoNTUuNSwgODYxLjM3NSkiIGNsYXNzPSJlZGdlTGFiZWwiPjxnIHRyYW5zZm9ybT0idHJhbnNsYXRlKC05LjYwNTQ2ODc1LCAtOS41KSIgY2xhc3M9ImxhYmVsIj48cmVjdCBoZWlnaHQ9IjE5LjAwMDIwNDA4NjMwMzcxIiB3aWR0aD0iMTkuMjA0NzUwMDYxMDM1MTU2IiByeT0iMCIgcng9IjAiPjwvcmVjdD48dGV4dCBzdHlsZT0iIj48dHNwYW4gY2xhc3M9InJvdyIgeD0iMCIgZHk9IjFlbSIgeG1sOnNwYWNlPSJwcmVzZXJ2ZSI+Tm88L3RzcGFuPjwvdGV4dD48L2c+PC9nPjxnIGNsYXNzPSJlZGdlTGFiZWwiPjxnIHRyYW5zZm9ybT0idHJhbnNsYXRlKDAsIDApIiBjbGFzcz0ibGFiZWwiPjxyZWN0IGhlaWdodD0iMCIgd2lkdGg9IjAiIHJ5PSIwIiByeD0iMCI+PC9yZWN0Pjx0ZXh0IHN0eWxlPSIiPjx0c3BhbiBjbGFzcz0icm93IiB4PSIwIiBkeT0iMWVtIiB4bWw6c3BhY2U9InByZXNlcnZlIj48L3RzcGFuPjwvdGV4dD48L2c+PC9nPjxnIGNsYXNzPSJlZGdlTGFiZWwiPjxnIHRyYW5zZm9ybT0idHJhbnNsYXRlKDAsIDApIiBjbGFzcz0ibGFiZWwiPjxyZWN0IGhlaWdodD0iMCIgd2lkdGg9IjAiIHJ5PSIwIiByeD0iMCI+PC9yZWN0Pjx0ZXh0IHN0eWxlPSIiPjx0c3BhbiBjbGFzcz0icm93IiB4PSIwIiBkeT0iMWVtIiB4bWw6c3BhY2U9InByZXNlcnZlIj48L3RzcGFuPjwvdGV4dD48L2c+PC9nPjxnIGNsYXNzPSJlZGdlTGFiZWwiPjxnIHRyYW5zZm9ybT0idHJhbnNsYXRlKDAsIDApIiBjbGFzcz0ibGFiZWwiPjxyZWN0IGhlaWdodD0iMCIgd2lkdGg9IjAiIHJ5PSIwIiByeD0iMCI+PC9yZWN0Pjx0ZXh0IHN0eWxlPSIiPjx0c3BhbiBjbGFzcz0icm93IiB4PSIwIiBkeT0iMWVtIiB4bWw6c3BhY2U9InByZXNlcnZlIj48L3RzcGFuPjwvdGV4dD48L2c+PC9nPjxnIHRyYW5zZm9ybT0idHJhbnNsYXRlKDIwOC4wNjY0MDYyNSwgMTA3OS4zNzUpIiBjbGFzcz0iZWRnZUxhYmVsIj48ZyB0cmFuc2Zvcm09InRyYW5zbGF0ZSgtMTIuMTk1MzEyNSwgLTkuNSkiIGNsYXNzPSJsYWJlbCI+PHJlY3QgaGVpZ2h0PSIxOS4wMDAyMDQwODYzMDM3MSIgd2lkdGg9IjI0LjM5MDg4NjMwNjc2MjY5NSIgcnk9IjAiIHJ4PSIwIj48L3JlY3Q+PHRleHQgc3R5bGU9IiI+PHRzcGFuIGNsYXNzPSJyb3ciIHg9IjAiIGR5PSIxZW0iIHhtbDpzcGFjZT0icHJlc2VydmUiPjDku7Y8L3RzcGFuPjwvdGV4dD48L2c+PC9nPjxnIGNsYXNzPSJlZGdlTGFiZWwiPjxnIHRyYW5zZm9ybT0idHJhbnNsYXRlKDAsIDApIiBjbGFzcz0ibGFiZWwiPjxyZWN0IGhlaWdodD0iMCIgd2lkdGg9IjAiIHJ5PSIwIiByeD0iMCI+PC9yZWN0Pjx0ZXh0IHN0eWxlPSIiPjx0c3BhbiBjbGFzcz0icm93IiB4PSIwIiBkeT0iMWVtIiB4bWw6c3BhY2U9InByZXNlcnZlIj48L3RzcGFuPjwvdGV4dD48L2c+PC9nPjxnIHRyYW5zZm9ybT0idHJhbnNsYXRlKDUxMi41MDc4MTI1LCA5NzYuMzc1KSIgY2xhc3M9ImVkZ2VMYWJlbCI+PGcgdHJhbnNmb3JtPSJ0cmFuc2xhdGUoLTI4LjE5NTMxMjUsIC05LjUpIiBjbGFzcz0ibGFiZWwiPjxyZWN0IGhlaWdodD0iMTkuMDAwMjA0MDg2MzAzNzEiIHdpZHRoPSI1Ni4zNjU5NjI5ODIxNzc3MzQiIHJ5PSIwIiByeD0iMCI+PC9yZWN0Pjx0ZXh0IHN0eWxlPSIiPjx0c3BhbiBjbGFzcz0icm93IiB4PSIwIiBkeT0iMWVtIiB4bWw6c3BhY2U9InByZXNlcnZlIj4x5Lu25Lul5LiKPC90c3Bhbj48L3RleHQ+PC9nPjwvZz48ZyBjbGFzcz0iZWRnZUxhYmVsIj48ZyB0cmFuc2Zvcm09InRyYW5zbGF0ZSgwLCAwKSIgY2xhc3M9ImxhYmVsIj48cmVjdCBoZWlnaHQ9IjAiIHdpZHRoPSIwIiByeT0iMCIgcng9IjAiPjwvcmVjdD48dGV4dCBzdHlsZT0iIj48dHNwYW4gY2xhc3M9InJvdyIgeD0iMCIgZHk9IjFlbSIgeG1sOnNwYWNlPSJwcmVzZXJ2ZSI+PC90c3Bhbj48L3RleHQ+PC9nPjwvZz48ZyB0cmFuc2Zvcm09InRyYW5zbGF0ZSg2MTQuOTI0NDc2NjIzNTM1MiwgMTM3Ni4yNSkiIGNsYXNzPSJlZGdlTGFiZWwiPjxnIHRyYW5zZm9ybT0idHJhbnNsYXRlKC0xMi4wODU5Mzc1LCAtOS41KSIgY2xhc3M9ImxhYmVsIj48cmVjdCBoZWlnaHQ9IjE5LjAwMDIwNDA4NjMwMzcxIiB3aWR0aD0iMjQuMTYyMDE3ODIyMjY1NjI1IiByeT0iMCIgcng9IjAiPjwvcmVjdD48dGV4dCBzdHlsZT0iIj48dHNwYW4gY2xhc3M9InJvdyIgeD0iMCIgZHk9IjFlbSIgeG1sOnNwYWNlPSJwcmVzZXJ2ZSI+WWVzPC90c3Bhbj48L3RleHQ+PC9nPjwvZz48ZyB0cmFuc2Zvcm09InRyYW5zbGF0ZSgzNTUuMDM1MTU2MjUsIDEzNzYuMjUpIiBjbGFzcz0iZWRnZUxhYmVsIj48ZyB0cmFuc2Zvcm09InRyYW5zbGF0ZSgtOS42MDU0Njg3NSwgLTkuNSkiIGNsYXNzPSJsYWJlbCI+PHJlY3QgaGVpZ2h0PSIxOS4wMDAyMDQwODYzMDM3MSIgd2lkdGg9IjE5LjIwNDc1MDA2MTAzNTE1NiIgcnk9IjAiIHJ4PSIwIj48L3JlY3Q+PHRleHQgc3R5bGU9IiI+PHRzcGFuIGNsYXNzPSJyb3ciIHg9IjAiIGR5PSIxZW0iIHhtbDpzcGFjZT0icHJlc2VydmUiPk5vPC90c3Bhbj48L3RleHQ+PC9nPjwvZz48ZyBjbGFzcz0iZWRnZUxhYmVsIj48ZyB0cmFuc2Zvcm09InRyYW5zbGF0ZSgwLCAwKSIgY2xhc3M9ImxhYmVsIj48cmVjdCBoZWlnaHQ9IjAiIHdpZHRoPSIwIiByeT0iMCIgcng9IjAiPjwvcmVjdD48dGV4dCBzdHlsZT0iIj48dHNwYW4gY2xhc3M9InJvdyIgeD0iMCIgZHk9IjFlbSIgeG1sOnNwYWNlPSJwcmVzZXJ2ZSI+PC90c3Bhbj48L3RleHQ+PC9nPjwvZz48ZyBjbGFzcz0iZWRnZUxhYmVsIj48ZyB0cmFuc2Zvcm09InRyYW5zbGF0ZSgwLCAwKSIgY2xhc3M9ImxhYmVsIj48cmVjdCBoZWlnaHQ9IjAiIHdpZHRoPSIwIiByeT0iMCIgcng9IjAiPjwvcmVjdD48dGV4dCBzdHlsZT0iIj48dHNwYW4gY2xhc3M9InJvdyIgeD0iMCIgZHk9IjFlbSIgeG1sOnNwYWNlPSJwcmVzZXJ2ZSI+PC90c3Bhbj48L3RleHQ+PC9nPjwvZz48ZyBjbGFzcz0iZWRnZUxhYmVsIj48ZyB0cmFuc2Zvcm09InRyYW5zbGF0ZSgwLCAwKSIgY2xhc3M9ImxhYmVsIj48cmVjdCBoZWlnaHQ9IjAiIHdpZHRoPSIwIiByeT0iMCIgcng9IjAiPjwvcmVjdD48dGV4dCBzdHlsZT0iIj48dHNwYW4gY2xhc3M9InJvdyIgeD0iMCIgZHk9IjFlbSIgeG1sOnNwYWNlPSJwcmVzZXJ2ZSI+PC90c3Bhbj48L3RleHQ+PC9nPjwvZz48ZyBjbGFzcz0iZWRnZUxhYmVsIj48ZyB0cmFuc2Zvcm09InRyYW5zbGF0ZSgwLCAwKSIgY2xhc3M9ImxhYmVsIj48cmVjdCBoZWlnaHQ9IjAiIHdpZHRoPSIwIiByeT0iMCIgcng9IjAiPjwvcmVjdD48dGV4dCBzdHlsZT0iIj48dHNwYW4gY2xhc3M9InJvdyIgeD0iMCIgZHk9IjFlbSIgeG1sOnNwYWNlPSJwcmVzZXJ2ZSI+PC90c3Bhbj48L3RleHQ+PC9nPjwvZz48ZyBjbGFzcz0iZWRnZUxhYmVsIj48ZyB0cmFuc2Zvcm09InRyYW5zbGF0ZSgwLCAwKSIgY2xhc3M9ImxhYmVsIj48cmVjdCBoZWlnaHQ9IjAiIHdpZHRoPSIwIiByeT0iMCIgcng9IjAiPjwvcmVjdD48dGV4dCBzdHlsZT0iIj48dHNwYW4gY2xhc3M9InJvdyIgeD0iMCIgZHk9IjFlbSIgeG1sOnNwYWNlPSJwcmVzZXJ2ZSI+PC90c3Bhbj48L3RleHQ+PC9nPjwvZz48ZyBjbGFzcz0iZWRnZUxhYmVsIj48ZyB0cmFuc2Zvcm09InRyYW5zbGF0ZSgwLCAwKSIgY2xhc3M9ImxhYmVsIj48cmVjdCBoZWlnaHQ9IjAiIHdpZHRoPSIwIiByeT0iMCIgcng9IjAiPjwvcmVjdD48dGV4dCBzdHlsZT0iIj48dHNwYW4gY2xhc3M9InJvdyIgeD0iMCIgZHk9IjFlbSIgeG1sOnNwYWNlPSJwcmVzZXJ2ZSI+PC90c3Bhbj48L3RleHQ+PC9nPjwvZz48ZyBjbGFzcz0iZWRnZUxhYmVsIj48ZyB0cmFuc2Zvcm09InRyYW5zbGF0ZSgwLCAwKSIgY2xhc3M9ImxhYmVsIj48cmVjdCBoZWlnaHQ9IjAiIHdpZHRoPSIwIiByeT0iMCIgcng9IjAiPjwvcmVjdD48dGV4dCBzdHlsZT0iIj48dHNwYW4gY2xhc3M9InJvdyIgeD0iMCIgZHk9IjFlbSIgeG1sOnNwYWNlPSJwcmVzZXJ2ZSI+PC90c3Bhbj48L3RleHQ+PC9nPjwvZz48ZyBjbGFzcz0iZWRnZUxhYmVsIj48ZyB0cmFuc2Zvcm09InRyYW5zbGF0ZSgwLCAwKSIgY2xhc3M9ImxhYmVsIj48cmVjdCBoZWlnaHQ9IjAiIHdpZHRoPSIwIiByeT0iMCIgcng9IjAiPjwvcmVjdD48dGV4dCBzdHlsZT0iIj48dHNwYW4gY2xhc3M9InJvdyIgeD0iMCIgZHk9IjFlbSIgeG1sOnNwYWNlPSJwcmVzZXJ2ZSI+PC90c3Bhbj48L3RleHQ+PC9nPjwvZz48ZyBjbGFzcz0iZWRnZUxhYmVsIj48ZyB0cmFuc2Zvcm09InRyYW5zbGF0ZSgwLCAwKSIgY2xhc3M9ImxhYmVsIj48cmVjdCBoZWlnaHQ9IjAiIHdpZHRoPSIwIiByeT0iMCIgcng9IjAiPjwvcmVjdD48dGV4dCBzdHlsZT0iIj48dHNwYW4gY2xhc3M9InJvdyIgeD0iMCIgZHk9IjFlbSIgeG1sOnNwYWNlPSJwcmVzZXJ2ZSI+PC90c3Bhbj48L3RleHQ+PC9nPjwvZz48ZyBjbGFzcz0iZWRnZUxhYmVsIj48ZyB0cmFuc2Zvcm09InRyYW5zbGF0ZSgwLCAwKSIgY2xhc3M9ImxhYmVsIj48cmVjdCBoZWlnaHQ9IjAiIHdpZHRoPSIwIiByeT0iMCIgcng9IjAiPjwvcmVjdD48dGV4dCBzdHlsZT0iIj48dHNwYW4gY2xhc3M9InJvdyIgeD0iMCIgZHk9IjFlbSIgeG1sOnNwYWNlPSJwcmVzZXJ2ZSI+PC90c3Bhbj48L3RleHQ+PC9nPjwvZz48L2c+PGcgY2xhc3M9Im5vZGVzIj48ZyB0cmFuc2Zvcm09InRyYW5zbGF0ZSgzNTcuOTcyNjU2MjUsIDI1KSIgaWQ9ImZsb3djaGFydC1BLTUyIiBjbGFzcz0ibm9kZSBkZWZhdWx0IGRlZmF1bHQiPjxyZWN0IGhlaWdodD0iMzQiIHdpZHRoPSI0NyIgeT0iLTE3IiB4PSItMjMuNSIgcnk9IjUiIHJ4PSI1IiBzdHlsZT0iIiBjbGFzcz0iYmFzaWMgbGFiZWwtY29udGFpbmVyIj48L3JlY3Q+PGcgdHJhbnNmb3JtPSJ0cmFuc2xhdGUoLTE2LCAtOS41KSIgc3R5bGU9IiIgY2xhc3M9ImxhYmVsIj48dGV4dCBzdHlsZT0iIj48dHNwYW4gY2xhc3M9InJvdyIgeD0iMCIgZHk9IjFlbSIgeG1sOnNwYWNlPSJwcmVzZXJ2ZSI+6ZaL5aeLPC90c3Bhbj48L3RleHQ+PC9nPjwvZz48ZyB0cmFuc2Zvcm09InRyYW5zbGF0ZSgzNTcuOTcyNjU2MjUsIDEwOSkiIGlkPSJmbG93Y2hhcnQtQi01MyIgY2xhc3M9Im5vZGUgZGVmYXVsdCBkZWZhdWx0Ij48cmVjdCBoZWlnaHQ9IjM0IiB3aWR0aD0iMTU5IiB5PSItMTciIHg9Ii03OS41IiByeT0iMCIgcng9IjAiIHN0eWxlPSIiIGNsYXNzPSJiYXNpYyBsYWJlbC1jb250YWluZXIiPjwvcmVjdD48ZyB0cmFuc2Zvcm09InRyYW5zbGF0ZSgtNzIsIC05LjUpIiBzdHlsZT0iIiBjbGFzcz0ibGFiZWwiPjx0ZXh0IHN0eWxlPSIiPjx0c3BhbiBjbGFzcz0icm93IiB4PSIwIiBkeT0iMWVtIiB4bWw6c3BhY2U9InByZXNlcnZlIj7lrp/ooYzmmYLjga7ml6Xku5jjgpLlj5blvpc8L3RzcGFuPjwvdGV4dD48L2c+PC9nPjxnIHRyYW5zZm9ybT0idHJhbnNsYXRlKDM1Ny45NzI2NTYyNSwgMTkzKSIgaWQ9ImZsb3djaGFydC1DLTU1IiBjbGFzcz0ibm9kZSBkZWZhdWx0IGRlZmF1bHQiPjxyZWN0IGhlaWdodD0iMzQiIHdpZHRoPSIxNTkiIHk9Ii0xNyIgeD0iLTc5LjUiIHJ5PSIwIiByeD0iMCIgc3R5bGU9IiIgY2xhc3M9ImJhc2ljIGxhYmVsLWNvbnRhaW5lciI+PC9yZWN0PjxnIHRyYW5zZm9ybT0idHJhbnNsYXRlKC03MiwgLTkuNSkiIHN0eWxlPSIiIGNsYXNzPSJsYWJlbCI+PHRleHQgc3R5bGU9IiI+PHRzcGFuIGNsYXNzPSJyb3ciIHg9IjAiIGR5PSIxZW0iIHhtbDpzcGFjZT0icHJlc2VydmUiPuWJjeaciOacq+OBruaXpeS7mOOCkueul+WHujwvdHNwYW4+PC90ZXh0PjwvZz48L2c+PGcgdHJhbnNmb3JtPSJ0cmFuc2xhdGUoMzU3Ljk3MjY1NjI1LCAyNzcpIiBpZD0iZmxvd2NoYXJ0LUQtNTciIGNsYXNzPSJub2RlIGRlZmF1bHQgZGVmYXVsdCI+PHJlY3QgaGVpZ2h0PSIzNCIgd2lkdGg9IjMwMyIgeT0iLTE3IiB4PSItMTUxLjUiIHJ5PSIwIiByeD0iMCIgc3R5bGU9IiIgY2xhc3M9ImJhc2ljIGxhYmVsLWNvbnRhaW5lciI+PC9yZWN0PjxnIHRyYW5zZm9ybT0idHJhbnNsYXRlKC0xNDQsIC05LjUpIiBzdHlsZT0iIiBjbGFzcz0ibGFiZWwiPjx0ZXh0IHN0eWxlPSIiPjx0c3BhbiBjbGFzcz0icm93IiB4PSIwIiBkeT0iMWVtIiB4bWw6c3BhY2U9InByZXNlcnZlIj7liY3mnIjjga7oqIjmuKzntZDmnpzjgpLlj5blvpfjgZnjgovjgq/jgqjjg6rjgpLkvZzmiJA8L3RzcGFuPjwvdGV4dD48L2c+PC9nPjxnIHRyYW5zZm9ybT0idHJhbnNsYXRlKDM1Ny45NzI2NTYyNSwgMzYxKSIgaWQ9ImZsb3djaGFydC1FLTU5IiBjbGFzcz0ibm9kZSBkZWZhdWx0IGRlZmF1bHQiPjxyZWN0IGhlaWdodD0iMzQiIHdpZHRoPSIzNTcuNzUiIHk9Ii0xNyIgeD0iLTE3OC44NzUiIHJ5PSIwIiByeD0iMCIgc3R5bGU9IiIgY2xhc3M9ImJhc2ljIGxhYmVsLWNvbnRhaW5lciI+PC9yZWN0PjxnIHRyYW5zZm9ybT0idHJhbnNsYXRlKC0xNzEuMzc1LCAtOS41KSIgc3R5bGU9IiIgY2xhc3M9ImxhYmVsIj48dGV4dCBzdHlsZT0iIj48dHNwYW4gY2xhc3M9InJvdyIgeD0iMCIgZHk9IjFlbSIgeG1sOnNwYWNlPSJwcmVzZXJ2ZSI+aU5vbml1c+OCueODlOODvOODieODhuOCueODiOOBrkRC44G444Gu5o6l57aa5oOF5aCx44KS5Y+W5b6XPC90c3Bhbj48L3RleHQ+PC9nPjwvZz48ZyB0cmFuc2Zvcm09InRyYW5zbGF0ZSgzNTcuOTcyNjU2MjUsIDQ4NS45Mzc1KSIgaWQ9ImZsb3djaGFydC1GLTYxIiBjbGFzcz0ibm9kZSBkZWZhdWx0IGRlZmF1bHQiPjxwb2x5Z29uIHN0eWxlPSIiIHRyYW5zZm9ybT0idHJhbnNsYXRlKC01Ny45Mzc1LDU3LjkzNzUpIiBjbGFzcz0ibGFiZWwtY29udGFpbmVyIiBwb2ludHM9IjU3LjkzNzUsMCAxMTUuODc1LC01Ny45Mzc1IDU3LjkzNzUsLTExNS44NzUgMCwtNTcuOTM3NSI+PC9wb2x5Z29uPjxnIHRyYW5zZm9ybT0idHJhbnNsYXRlKC0zMy40Mzc1LCAtOS41KSIgc3R5bGU9IiIgY2xhc3M9ImxhYmVsIj48dGV4dCBzdHlsZT0iIj48dHNwYW4gY2xhc3M9InJvdyIgeD0iMCIgZHk9IjFlbSIgeG1sOnNwYWNlPSJwcmVzZXJ2ZSI+QkTjgbjmjqXntpo8L3RzcGFuPjwvdGV4dD48L2c+PC9nPjxnIHRyYW5zZm9ybT0idHJhbnNsYXRlKDQzOC4wMzkwNjI1LCA2MjkuODc1KSIgaWQ9ImZsb3djaGFydC1HLTYzIiBjbGFzcz0ibm9kZSBkZWZhdWx0IGRlZmF1bHQiPjxyZWN0IGhlaWdodD0iMzQiIHdpZHRoPSIxMTEiIHk9Ii0xNyIgeD0iLTU1LjUiIHJ5PSIwIiByeD0iMCIgc3R5bGU9IiIgY2xhc3M9ImJhc2ljIGxhYmVsLWNvbnRhaW5lciI+PC9yZWN0PjxnIHRyYW5zZm9ybT0idHJhbnNsYXRlKC00OCwgLTkuNSkiIHN0eWxlPSIiIGNsYXNzPSJsYWJlbCI+PHRleHQgc3R5bGU9IiI+PHRzcGFuIGNsYXNzPSJyb3ciIHg9IjAiIGR5PSIxZW0iIHhtbDpzcGFjZT0icHJlc2VydmUiPuOCr+OCqOODquOCkuWun+ihjDwvdHNwYW4+PC90ZXh0PjwvZz48L2c+PGcgdHJhbnNmb3JtPSJ0cmFuc2xhdGUoNTUuNSwgMTQyNy43NSkiIGlkPSJmbG93Y2hhcnQtSC02NSIgY2xhc3M9Im5vZGUgZGVmYXVsdCBkZWZhdWx0Ij48cmVjdCBoZWlnaHQ9IjM0IiB3aWR0aD0iOTUiIHk9Ii0xNyIgeD0iLTQ3LjUiIHJ5PSIwIiByeD0iMCIgc3R5bGU9IiIgY2xhc3M9ImJhc2ljIGxhYmVsLWNvbnRhaW5lciI+PC9yZWN0PjxnIHRyYW5zZm9ybT0idHJhbnNsYXRlKC00MCwgLTkuNSkiIHN0eWxlPSIiIGNsYXNzPSJsYWJlbCI+PHRleHQgc3R5bGU9IiI+PHRzcGFuIGNsYXNzPSJyb3ciIHg9IjAiIGR5PSIxZW0iIHhtbDpzcGFjZT0icHJlc2VydmUiPueVsOW4uOOBrumAmuefpTwvdHNwYW4+PC90ZXh0PjwvZz48L2c+PGcgdHJhbnNmb3JtPSJ0cmFuc2xhdGUoMjAwLjUsIDE1MTEuNzUpIiBpZD0iZmxvd2NoYXJ0LUktNjciIGNsYXNzPSJub2RlIGRlZmF1bHQgZGVmYXVsdCI+PHJlY3QgaGVpZ2h0PSIzNCIgd2lkdGg9IjU1LjUiIHk9Ii0xNyIgeD0iLTI3Ljc1IiByeT0iMTciIHJ4PSIxNyIgc3R5bGU9IiI+PC9yZWN0PjxnIHRyYW5zZm9ybT0idHJhbnNsYXRlKC0xNiwgLTkuNSkiIHN0eWxlPSIiIGNsYXNzPSJsYWJlbCI+PHRleHQgc3R5bGU9IiI+PHRzcGFuIGNsYXNzPSJyb3ciIHg9IjAiIGR5PSIxZW0iIHhtbDpzcGFjZT0icHJlc2VydmUiPue1guS6hjwvdHNwYW4+PC90ZXh0PjwvZz48L2c+PGcgdHJhbnNmb3JtPSJ0cmFuc2xhdGUoNDM4LjAzOTA2MjUsIDcxMy44NzUpIiBpZD0iZmxvd2NoYXJ0LUotNjkiIGNsYXNzPSJub2RlIGRlZmF1bHQgZGVmYXVsdCI+PHJlY3QgaGVpZ2h0PSIzNCIgd2lkdGg9IjI1MC4yNjU2MjUiIHk9Ii0xNyIgeD0iLTEyNS4xMzI4MTI1IiByeT0iMCIgcng9IjAiIHN0eWxlPSIiIGNsYXNzPSJiYXNpYyBsYWJlbC1jb250YWluZXIiPjwvcmVjdD48ZyB0cmFuc2Zvcm09InRyYW5zbGF0ZSgtMTE3LjYzMjgxMjUsIC05LjUpIiBzdHlsZT0iIiBjbGFzcz0ibGFiZWwiPjx0ZXh0IHN0eWxlPSIiPjx0c3BhbiBjbGFzcz0icm93IiB4PSIwIiBkeT0iMWVtIiB4bWw6c3BhY2U9InByZXNlcnZlIj5EQuOBi+OCiTHjg7bmnIjplpPjga7oqIjmuKzjg63jgrDjgpLlj5blvpc8L3RzcGFuPjwvdGV4dD48L2c+PC9nPjxnIHRyYW5zZm9ybT0idHJhbnNsYXRlKDQzOC4wMzkwNjI1LCA4NjEuMzc1KSIgaWQ9ImZsb3djaGFydC1LLTcxIiBjbGFzcz0ibm9kZSBkZWZhdWx0IGRlZmF1bHQiPjxwb2x5Z29uIHN0eWxlPSIiIHRyYW5zZm9ybT0idHJhbnNsYXRlKC04MC41LDgwLjUpIiBjbGFzcz0ibGFiZWwtY29udGFpbmVyIiBwb2ludHM9IjgwLjUsMCAxNjEsLTgwLjUgODAuNSwtMTYxIDAsLTgwLjUiPjwvcG9seWdvbj48ZyB0cmFuc2Zvcm09InRyYW5zbGF0ZSgtNTYsIC05LjUpIiBzdHlsZT0iIiBjbGFzcz0ibGFiZWwiPjx0ZXh0IHN0eWxlPSIiPjx0c3BhbiBjbGFzcz0icm93IiB4PSIwIiBkeT0iMWVtIiB4bWw6c3BhY2U9InByZXNlcnZlIj7oqIjmuKzjg63jgrDjga7ku7bmlbA8L3RzcGFuPjwvdGV4dD48L2c+PC9nPjxnIHRyYW5zZm9ybT0idHJhbnNsYXRlKDIwOC4wNjY0MDYyNSwgMTQyNy43NSkiIGlkPSJmbG93Y2hhcnQtTC03MyIgY2xhc3M9Im5vZGUgZGVmYXVsdCBkZWZhdWx0Ij48cmVjdCBoZWlnaHQ9IjM0IiB3aWR0aD0iOTUiIHk9Ii0xNyIgeD0iLTQ3LjUiIHJ5PSIwIiByeD0iMCIgc3R5bGU9IiIgY2xhc3M9ImJhc2ljIGxhYmVsLWNvbnRhaW5lciI+PC9yZWN0PjxnIHRyYW5zZm9ybT0idHJhbnNsYXRlKC00MCwgLTkuNSkiIHN0eWxlPSIiIGNsYXNzPSJsYWJlbCI+PHRleHQgc3R5bGU9IiI+PHRzcGFuIGNsYXNzPSJyb3ciIHg9IjAiIGR5PSIxZW0iIHhtbDpzcGFjZT0icHJlc2VydmUiPueVsOW4uOOBrumAmuefpTwvdHNwYW4+PC90ZXh0PjwvZz48L2c+PGcgdHJhbnNmb3JtPSJ0cmFuc2xhdGUoNTEyLjUwNzgxMjUsIDEwMjcuODc1KSIgaWQ9ImZsb3djaGFydC1NLTc3IiBjbGFzcz0ibm9kZSBkZWZhdWx0IGRlZmF1bHQiPjxyZWN0IGhlaWdodD0iMzQiIHdpZHRoPSIxMTIiIHk9Ii0xNyIgeD0iLTU2IiByeT0iMCIgcng9IjAiIHN0eWxlPSIiIGNsYXNzPSJiYXNpYyBsYWJlbC1jb250YWluZXIiPjwvcmVjdD48ZyB0cmFuc2Zvcm09InRyYW5zbGF0ZSgtNDguNSwgLTkuNSkiIHN0eWxlPSIiIGNsYXNzPSJsYWJlbCI+PHRleHQgc3R5bGU9IiI+PHRzcGFuIGNsYXNzPSJyb3ciIHg9IjAiIGR5PSIxZW0iIHhtbDpzcGFjZT0icHJlc2VydmUiPuWkluOCjOWApOOBrumZpOWOuzwvdHNwYW4+PC90ZXh0PjwvZz48L2c+PGcgdHJhbnNmb3JtPSJ0cmFuc2xhdGUoNTEyLjUwNzgxMjUsIDEyMjcuODEyNSkiIGlkPSJmbG93Y2hhcnQtWC03OSIgY2xhc3M9Im5vZGUgZGVmYXVsdCBkZWZhdWx0Ij48cG9seWdvbiBzdHlsZT0iIiB0cmFuc2Zvcm09InRyYW5zbGF0ZSgtMTEzLjkzNzUsMTEzLjkzNzUpIiBjbGFzcz0ibGFiZWwtY29udGFpbmVyIiBwb2ludHM9IjExMy45Mzc1LDAgMjI3Ljg3NSwtMTEzLjkzNzUgMTEzLjkzNzUsLTIyNy44NzUgMCwtMTEzLjkzNzUiPjwvcG9seWdvbj48ZyB0cmFuc2Zvcm09InRyYW5zbGF0ZSgtODkuNDM3NSwgLTkuNSkiIHN0eWxlPSIiIGNsYXNzPSJsYWJlbCI+PHRleHQgc3R5bGU9IiI+PHRzcGFuIGNsYXNzPSJyb3ciIHg9IjAiIGR5PSIxZW0iIHhtbDpzcGFjZT0icHJlc2VydmUiPuWPr+imluWMluOCt+OCueODhuODoERC44Gr5o6l57aaPC90c3Bhbj48L3RleHQ+PC9nPjwvZz48ZyB0cmFuc2Zvcm09InRyYW5zbGF0ZSg2MTQuOTI0NDc2NjIzNTM1MiwgMTQyNy43NSkiIGlkPSJmbG93Y2hhcnQtTi04MSIgY2xhc3M9Im5vZGUgZGVmYXVsdCBkZWZhdWx0Ij48cG9seWdvbiBzdHlsZT0iIiB0cmFuc2Zvcm09InRyYW5zbGF0ZSgtOTYsMTcpIiBjbGFzcz0ibGFiZWwtY29udGFpbmVyIiBwb2ludHM9Ii0xMS4zMzMzMzMzMzMzMzMzMzQsMCAyMDMuMzMzMzMzMzMzMzMzMzQsMCAxODYuMzMzMzMzMzMzMzMzMzQsLTM0IDUuNjY2NjY2NjY2NjY2NjY3LC0zNCI+PC9wb2x5Z29uPjxnIHRyYW5zZm9ybT0idHJhbnNsYXRlKC04OC41LCAtOS41KSIgc3R5bGU9IiIgY2xhc3M9ImxhYmVsIj48dGV4dCBzdHlsZT0iIj48dHNwYW4gY2xhc3M9InJvdyIgeD0iMCIgZHk9IjFlbSIgeG1sOnNwYWNlPSJwcmVzZXJ2ZSI+44Ki44Kv44K744K555Kw5aKD44Gu5pWw44Or44O844OXPC90c3Bhbj48L3RleHQ+PC9nPjwvZz48ZyB0cmFuc2Zvcm09InRyYW5zbGF0ZSgzNTUuMDM1MTU2MjUsIDE0MjcuNzUpIiBpZD0iZmxvd2NoYXJ0LVktODMiIGNsYXNzPSJub2RlIGRlZmF1bHQgZGVmYXVsdCI+PHJlY3QgaGVpZ2h0PSIzNCIgd2lkdGg9Ijk1IiB5PSItMTciIHg9Ii00Ny41IiByeT0iMCIgcng9IjAiIHN0eWxlPSIiIGNsYXNzPSJiYXNpYyBsYWJlbC1jb250YWluZXIiPjwvcmVjdD48ZyB0cmFuc2Zvcm09InRyYW5zbGF0ZSgtNDAsIC05LjUpIiBzdHlsZT0iIiBjbGFzcz0ibGFiZWwiPjx0ZXh0IHN0eWxlPSIiPjx0c3BhbiBjbGFzcz0icm93IiB4PSIwIiBkeT0iMWVtIiB4bWw6c3BhY2U9InByZXNlcnZlIj7nlbDluLjjga7pgJrnn6U8L3RzcGFuPjwvdGV4dD48L2c+PC9nPjxnIHRyYW5zZm9ybT0idHJhbnNsYXRlKDUwNy41NzY4MjAzNzM1MzUxNiwgMTUxMS43NSkiIGlkPSJmbG93Y2hhcnQtTy04NyIgY2xhc3M9Im5vZGUgZGVmYXVsdCBkZWZhdWx0Ij48cmVjdCBoZWlnaHQ9IjM0IiB3aWR0aD0iMzM1IiB5PSItMTciIHg9Ii0xNjcuNSIgcnk9IjAiIHJ4PSIwIiBzdHlsZT0iIiBjbGFzcz0iYmFzaWMgbGFiZWwtY29udGFpbmVyIj48L3JlY3Q+PGcgdHJhbnNmb3JtPSJ0cmFuc2xhdGUoLTE2MCwgLTkuNSkiIHN0eWxlPSIiIGNsYXNzPSJsYWJlbCI+PHRleHQgc3R5bGU9IiI+PHRzcGFuIGNsYXNzPSJyb3ciIHg9IjAiIGR5PSIxZW0iIHhtbDpzcGFjZT0icHJlc2VydmUiPuOCouOCr+OCu+OCueeSsOWig+OBruadoeS7tuOBq+WQiOiHtOOBmeOCi+ODh+ODvOOCv+OCkuaKveWHujwvdHNwYW4+PC90ZXh0PjwvZz48L2c+PGcgdHJhbnNmb3JtPSJ0cmFuc2xhdGUoNTA3LjU3NjgyMDM3MzUzNTE2LCAxNTk1Ljc1KSIgaWQ9ImZsb3djaGFydC1QLTg5IiBjbGFzcz0ibm9kZSBkZWZhdWx0IGRlZmF1bHQiPjxyZWN0IGhlaWdodD0iMzQiIHdpZHRoPSIxNDQiIHk9Ii0xNyIgeD0iLTcyIiByeT0iMCIgcng9IjAiIHN0eWxlPSIiIGNsYXNzPSJiYXNpYyBsYWJlbC1jb250YWluZXIiPjwvcmVjdD48ZyB0cmFuc2Zvcm09InRyYW5zbGF0ZSgtNjQuNSwgLTkuNSkiIHN0eWxlPSIiIGNsYXNzPSJsYWJlbCI+PHRleHQgc3R5bGU9IiI+PHRzcGFuIGNsYXNzPSJyb3ciIHg9IjAiIGR5PSIxZW0iIHhtbDpzcGFjZT0icHJlc2VydmUiPuWfuuacrOe1seioiOmHj+OCkueul+WHujwvdHNwYW4+PC90ZXh0PjwvZz48L2c+PGcgdHJhbnNmb3JtPSJ0cmFuc2xhdGUoNTA3LjU3NjgyMDM3MzUzNTE2LCAxNjc5Ljc1KSIgaWQ9ImZsb3djaGFydC1RLTkxIiBjbGFzcz0ibm9kZSBkZWZhdWx0IGRlZmF1bHQiPjxyZWN0IGhlaWdodD0iMzQiIHdpZHRoPSIyMjMiIHk9Ii0xNyIgeD0iLTExMS41IiByeT0iMCIgcng9IjAiIHN0eWxlPSIiIGNsYXNzPSJiYXNpYyBsYWJlbC1jb250YWluZXIiPjwvcmVjdD48ZyB0cmFuc2Zvcm09InRyYW5zbGF0ZSgtMTA0LCAtOS41KSIgc3R5bGU9IiIgY2xhc3M9ImxhYmVsIj48dGV4dCBzdHlsZT0iIj48dHNwYW4gY2xhc3M9InJvdyIgeD0iMCIgZHk9IjFlbSIgeG1sOnNwYWNlPSJwcmVzZXJ2ZSI+57Wx6KiI6YeP6KiY6Yyy55So44OG44O844OW44Or44Gu5pu05pawPC90c3Bhbj48L3RleHQ+PC9nPjwvZz48ZyB0cmFuc2Zvcm09InRyYW5zbGF0ZSg1MDcuNTc2ODIwMzczNTM1MTYsIDE3NjMuNzUpIiBpZD0iZmxvd2NoYXJ0LVItOTMiIGNsYXNzPSJub2RlIGRlZmF1bHQgZGVmYXVsdCI+PHJlY3QgaGVpZ2h0PSIzNCIgd2lkdGg9IjM1OS4zOTA2MjUiIHk9Ii0xNyIgeD0iLTE3OS42OTUzMTI1IiByeT0iMCIgcng9IjAiIHN0eWxlPSIiIGNsYXNzPSJiYXNpYyBsYWJlbC1jb250YWluZXIiPjwvcmVjdD48ZyB0cmFuc2Zvcm09InRyYW5zbGF0ZSgtMTcyLjE5NTMxMjUsIC05LjUpIiBzdHlsZT0iIiBjbGFzcz0ibGFiZWwiPjx0ZXh0IHN0eWxlPSIiPjx0c3BhbiBjbGFzcz0icm93IiB4PSIwIiBkeT0iMWVtIiB4bWw6c3BhY2U9InByZXNlcnZlIj7ntbHoqIjph4/oqJjpjLLnlKjjg4bjg7zjg5bjg6vjgYvjgokx5bm05YiG44Gu44OH44O844K/44KS5Y+W5b6XPC90c3Bhbj48L3RleHQ+PC9nPjwvZz48ZyB0cmFuc2Zvcm09InRyYW5zbGF0ZSg1MDcuNTc2ODIwMzczNTM1MTYsIDE4NDcuNzUpIiBpZD0iZmxvd2NoYXJ0LVMtOTUiIGNsYXNzPSJub2RlIGRlZmF1bHQgZGVmYXVsdCI+PHJlY3QgaGVpZ2h0PSIzNCIgd2lkdGg9IjExMiIgeT0iLTE3IiB4PSItNTYiIHJ5PSIwIiByeD0iMCIgc3R5bGU9IiIgY2xhc3M9ImJhc2ljIGxhYmVsLWNvbnRhaW5lciI+PC9yZWN0PjxnIHRyYW5zZm9ybT0idHJhbnNsYXRlKC00OC41LCAtOS41KSIgc3R5bGU9IiIgY2xhc3M9ImxhYmVsIj48dGV4dCBzdHlsZT0iIj48dHNwYW4gY2xhc3M9InJvdyIgeD0iMCIgZHk9IjFlbSIgeG1sOnNwYWNlPSJwcmVzZXJ2ZSI+44Kw44Op44OV44KS5L2c5oiQPC90c3Bhbj48L3RleHQ+PC9nPjwvZz48ZyB0cmFuc2Zvcm09InRyYW5zbGF0ZSg1MDcuNTc2ODIwMzczNTM1MTYsIDE5MzEuNzUpIiBpZD0iZmxvd2NoYXJ0LVQtOTciIGNsYXNzPSJub2RlIGRlZmF1bHQgZGVmYXVsdCI+PHJlY3QgaGVpZ2h0PSIzNCIgd2lkdGg9IjI1NiIgeT0iLTE3IiB4PSItMTI4IiByeT0iMCIgcng9IjAiIHN0eWxlPSIiIGNsYXNzPSJiYXNpYyBsYWJlbC1jb250YWluZXIiPjwvcmVjdD48ZyB0cmFuc2Zvcm09InRyYW5zbGF0ZSgtMTIwLjUsIC05LjUpIiBzdHlsZT0iIiBjbGFzcz0ibGFiZWwiPjx0ZXh0IHN0eWxlPSIiPjx0c3BhbiBjbGFzcz0icm93IiB4PSIwIiBkeT0iMWVtIiB4bWw6c3BhY2U9InByZXNlcnZlIj7jgrDjg6njg5XnlLvlg4/oqJjpjLLnlKjjg4bjg7zjg5bjg6vjgavkv53lrZg8L3RzcGFuPjwvdGV4dD48L2c+PC9nPjxnIHRyYW5zZm9ybT0idHJhbnNsYXRlKDYxNC45MjQ0NzY2MjM1MzUyLCAyMDA2LjI1KSIgaWQ9ImZsb3djaGFydC1VLTk5IiBjbGFzcz0ibm9kZSBkZWZhdWx0IGRlZmF1bHQiPjxwb2x5Z29uIHN0eWxlPSIiIHRyYW5zZm9ybT0idHJhbnNsYXRlKC03LjUsNy41KSIgY2xhc3M9ImxhYmVsLWNvbnRhaW5lciIgcG9pbnRzPSIyLjUsMCAxMi41LDAgMjAsLTE1IC01LC0xNSI+PC9wb2x5Z29uPjxnIHRyYW5zZm9ybT0idHJhbnNsYXRlKDAsIDApIiBzdHlsZT0iIiBjbGFzcz0ibGFiZWwiPjx0ZXh0IHN0eWxlPSIiPjx0c3BhbiBjbGFzcz0icm93IiB4PSIwIiBkeT0iMWVtIiB4bWw6c3BhY2U9InByZXNlcnZlIj48L3RzcGFuPjwvdGV4dD48L2c+PC9nPjxnIHRyYW5zZm9ybT0idHJhbnNsYXRlKDYxNC45MjQ0NzY2MjM1MzUyLCAyMDgwLjc1KSIgaWQ9ImZsb3djaGFydC1WLTEwMyIgY2xhc3M9Im5vZGUgZGVmYXVsdCBkZWZhdWx0Ij48cmVjdCBoZWlnaHQ9IjM0IiB3aWR0aD0iNDciIHk9Ii0xNyIgeD0iLTIzLjUiIHJ5PSI1IiByeD0iNSIgc3R5bGU9IiIgY2xhc3M9ImJhc2ljIGxhYmVsLWNvbnRhaW5lciI+PC9yZWN0PjxnIHRyYW5zZm9ybT0idHJhbnNsYXRlKC0xNiwgLTkuNSkiIHN0eWxlPSIiIGNsYXNzPSJsYWJlbCI+PHRleHQgc3R5bGU9IiI+PHRzcGFuIGNsYXNzPSJyb3ciIHg9IjAiIGR5PSIxZW0iIHhtbDpzcGFjZT0icHJlc2VydmUiPue1guS6hjwvdHNwYW4+PC90ZXh0PjwvZz48L2c+PC9nPjwvZz48L2c+PC9zdmc+;" parent="1" vertex="1">
                        <mxGeometry width="410" height="1160" as="geometry"/>
                    </mxCell>
                </UserObject>
                <mxCell id="3" value="" style="shape=image;verticalLabelPosition=bottom;labelBackgroundColor=default;verticalAlign=top;aspect=fixed;imageAspect=0;image=data:image/png,iVBORw0KGgoAAAANSUhEUgAAAAkAAAAJAQMAAADaX5RTAAAABlBMVEV7mr3///+wksspAAAAAnRSTlP/AOW3MEoAAAAdSURBVAgdY9jXwCDDwNDRwHCwgeExmASygSL7GgB12QiqNHZZIwAAAABJRU5ErkJggg==;" parent="1" vertex="1">
                    <mxGeometry width="9" height="9" as="geometry"/>
                </mxCell>
            </root>
        </mxGraphModel>
    </diagram>
    <diagram id="6Z85_YR-fg20JOwDJvnQ" name="ページ2">
        <mxGraphModel dx="1765" dy="1848" grid="1" gridSize="10" guides="1" tooltips="1" connect="1" arrows="1" fold="1" page="1" pageScale="1" pageWidth="827" pageHeight="1169" math="0" shadow="0">
            <root>
                <mxCell id="0"/>
                <mxCell id="1" parent="0"/>
                <mxCell id="ZgNL28g1mnZKtGi8hHCQ-23" value="" style="rounded=1;whiteSpace=wrap;html=1;" vertex="1" parent="1">
                    <mxGeometry x="210" y="180" width="320" height="302.6" as="geometry"/>
                </mxCell>
                <mxCell id="ZgNL28g1mnZKtGi8hHCQ-21" value="" style="rounded=1;whiteSpace=wrap;html=1;" vertex="1" parent="1">
                    <mxGeometry x="110" y="180" width="80" height="260" as="geometry"/>
                </mxCell>
                <mxCell id="ZgNL28g1mnZKtGi8hHCQ-10" style="edgeStyle=none;html=1;endArrow=none;endFill=0;" edge="1" parent="1" source="ZgNL28g1mnZKtGi8hHCQ-2" target="ZgNL28g1mnZKtGi8hHCQ-5">
                    <mxGeometry relative="1" as="geometry"/>
                </mxCell>
                <mxCell id="ZgNL28g1mnZKtGi8hHCQ-2" value="" style="points=[];aspect=fixed;html=1;align=center;shadow=0;dashed=0;image;image=img/lib/allied_telesis/computer_and_terminals/Laptop.svg;" vertex="1" parent="1">
                    <mxGeometry x="130" y="374.3" width="42" height="42.599999999999994" as="geometry"/>
                </mxCell>
                <mxCell id="ZgNL28g1mnZKtGi8hHCQ-3" value="" style="points=[];aspect=fixed;html=1;align=center;shadow=0;dashed=0;image;image=img/lib/allied_telesis/computer_and_terminals/Server_Desktop.svg;" vertex="1" parent="1">
                    <mxGeometry x="580" y="288.55" width="42.599999999999994" height="54" as="geometry"/>
                </mxCell>
                <mxCell id="ZgNL28g1mnZKtGi8hHCQ-12" style="edgeStyle=none;html=1;endArrow=none;endFill=0;" edge="1" parent="1" source="ZgNL28g1mnZKtGi8hHCQ-4" target="ZgNL28g1mnZKtGi8hHCQ-3">
                    <mxGeometry relative="1" as="geometry"/>
                </mxCell>
                <mxCell id="ZgNL28g1mnZKtGi8hHCQ-4" value="Internet" style="ellipse;shape=cloud;whiteSpace=wrap;html=1;" vertex="1" parent="1">
                    <mxGeometry x="400" y="280" width="120" height="80" as="geometry"/>
                </mxCell>
                <mxCell id="ZgNL28g1mnZKtGi8hHCQ-11" style="edgeStyle=none;html=1;endArrow=none;endFill=0;" edge="1" parent="1" source="ZgNL28g1mnZKtGi8hHCQ-5" target="ZgNL28g1mnZKtGi8hHCQ-4">
                    <mxGeometry relative="1" as="geometry"/>
                </mxCell>
                <mxCell id="ZgNL28g1mnZKtGi8hHCQ-5" value="" style="verticalLabelPosition=bottom;sketch=0;aspect=fixed;html=1;verticalAlign=top;strokeColor=none;align=center;outlineConnect=0;shape=mxgraph.citrix.router;" vertex="1" parent="1">
                    <mxGeometry x="260" y="377.35" width="55" height="36.5" as="geometry"/>
                </mxCell>
                <mxCell id="ZgNL28g1mnZKtGi8hHCQ-6" value="ユーザー側&lt;br&gt;(自宅，職場など)" style="rounded=0;whiteSpace=wrap;html=1;" vertex="1" parent="1">
                    <mxGeometry x="40" y="170.00000000000003" width="120" height="37.4" as="geometry"/>
                </mxCell>
                <mxCell id="ZgNL28g1mnZKtGi8hHCQ-8" value="iNonius Speed Test" style="rounded=0;whiteSpace=wrap;html=1;" vertex="1" parent="1">
                    <mxGeometry x="541.3" y="349.95" width="120" height="27.4" as="geometry"/>
                </mxCell>
                <mxCell id="ZgNL28g1mnZKtGi8hHCQ-13" value="Internet Service Provider" style="rounded=0;whiteSpace=wrap;html=1;" vertex="1" parent="1">
                    <mxGeometry x="227.5" y="422.6" width="120" height="37.4" as="geometry"/>
                </mxCell>
                <mxCell id="ZgNL28g1mnZKtGi8hHCQ-17" style="edgeStyle=none;html=1;endArrow=none;endFill=0;dashed=1;" edge="1" parent="1" source="ZgNL28g1mnZKtGi8hHCQ-15" target="ZgNL28g1mnZKtGi8hHCQ-16">
                    <mxGeometry relative="1" as="geometry"/>
                </mxCell>
                <mxCell id="ZgNL28g1mnZKtGi8hHCQ-15" value="" style="sketch=0;aspect=fixed;pointerEvents=1;shadow=0;dashed=0;html=1;strokeColor=none;labelPosition=center;verticalLabelPosition=bottom;verticalAlign=top;align=center;fillColor=#00188D;shape=mxgraph.azure.mobile" vertex="1" parent="1">
                    <mxGeometry x="133.5" y="220" width="35" height="50" as="geometry"/>
                </mxCell>
                <mxCell id="ZgNL28g1mnZKtGi8hHCQ-18" style="edgeStyle=none;html=1;endArrow=none;endFill=0;" edge="1" parent="1" source="ZgNL28g1mnZKtGi8hHCQ-16" target="ZgNL28g1mnZKtGi8hHCQ-4">
                    <mxGeometry relative="1" as="geometry"/>
                </mxCell>
                <mxCell id="ZgNL28g1mnZKtGi8hHCQ-16" value="" style="verticalLabelPosition=bottom;shadow=0;dashed=0;align=center;html=1;verticalAlign=top;shape=mxgraph.electrical.radio.aerial_-_antenna_2;" vertex="1" parent="1">
                    <mxGeometry x="260" y="220" width="47" height="50" as="geometry"/>
                </mxCell>
                <mxCell id="ZgNL28g1mnZKtGi8hHCQ-20" value="モバイルキャリア網" style="rounded=0;whiteSpace=wrap;html=1;" vertex="1" parent="1">
                    <mxGeometry x="227.5" y="280" width="120" height="37.4" as="geometry"/>
                </mxCell>
                <mxCell id="ZgNL28g1mnZKtGi8hHCQ-24" value="計測区間" style="rounded=0;whiteSpace=wrap;html=1;" vertex="1" parent="1">
                    <mxGeometry x="223.5" y="160.00000000000003" width="120" height="37.4" as="geometry"/>
                </mxCell>
            </root>
        </mxGraphModel>
    </diagram>
</mxfile>